/* XPM */
static char *_0327_9f4dae84ecacfcabc80f741d7961b419839fb56e9a8cb4feb6b198ef65c80b28[] = {
/* columns rows colors chars-per-pixel */
"24 24 191 2 ",
"   c #BA2014",
".  c #B42F09",
"X  c #DC160B",
"o  c #D91D11",
"O  c #D9250E",
"+  c #CC3C0A",
"@  c #CF2D1F",
"#  c #C02216",
"$  c #DE2519",
"%  c #D32C1B",
"&  c #E22419",
"*  c #E42B1C",
"=  c #E9291A",
"-  c #E03217",
";  c #CF2F21",
":  c #E43E32",
">  c #BA573E",
",  c #B1723D",
"<  c #DA523F",
"1  c #E94A3C",
"2  c #FF4735",
"3  c #FA4F31",
"4  c #F74938",
"5  c #F35E30",
"6  c #D3703F",
"7  c #EE6E37",
"8  c #B27340",
"9  c #B56E5B",
"0  c #B56D5B",
"q  c #B9745C",
"w  c #B87355",
"e  c #9C796D",
"r  c #977667",
"t  c #8B7D74",
"y  c #B47261",
"u  c #B97261",
"i  c #B77C74",
"p  c #A1776B",
"a  c #CB5949",
"s  c #C15C4D",
"d  c #ED5746",
"f  c #F25B4B",
"g  c #F45846",
"h  c #F65E50",
"j  c #CE6455",
"k  c #FB6B56",
"l  c #C36F65",
"z  c #C27A65",
"x  c #C57D69",
"c  c #BE8B5E",
"v  c #B99153",
"b  c #9E827E",
"n  c #BB9E62",
"m  c #A8887B",
"M  c #BD8A79",
"N  c #AE977F",
"B  c #BFA769",
"V  c #C2814E",
"C  c #C88B59",
"Z  c #C09759",
"A  c #FE8B4F",
"S  c #FF8E52",
"D  c #C88966",
"F  c #C9826D",
"G  c #C78969",
"H  c #CC8572",
"J  c #C38C73",
"K  c #C48A79",
"L  c #CC8B79",
"P  c #C98575",
"I  c #D18875",
"U  c #D08774",
"Y  c #CEBF7C",
"T  c #D3B875",
"R  c #FFB173",
"E  c #FFB679",
"W  c #DCC17C",
"Q  c #7E918B",
"!  c #7DC4BE",
"~  c #7AB8CF",
"^  c #7CB8C8",
"/  c #7BB9D1",
"(  c #5FD0D8",
")  c #7CC9CF",
"_  c #75C8C8",
"`  c #6DCFDA",
"'  c #72CCD5",
"]  c #74CFDA",
"[  c #6CD0DC",
"{  c #63D0D7",
"}  c #78D8D8",
"|  c #6BDAE6",
" . c #6DDBE8",
".. c #71DBE4",
"X. c #AA8C81",
"o. c #B1958C",
"O. c #A8A59A",
"+. c #A3BC9F",
"@. c #BCB191",
"#. c #BAAD8A",
"$. c #92A9A1",
"%. c #BAA9AB",
"&. c #B8B2A6",
"*. c #AEB2B5",
"=. c #BCBBBD",
"-. c #A8B5A3",
";. c #D5AE8F",
":. c #CEBE8A",
">. c #C5BB97",
",. c #F9B783",
"<. c #C1BEAD",
"1. c #C2A9AC",
"2. c #9BCAAD",
"3. c #B2C0A7",
"4. c #A4C3BE",
"5. c #BED6BE",
"6. c #A7C8AB",
"7. c #D5C88A",
"8. c #DBCC96",
"9. c #E1C09F",
"0. c #CBC0BC",
"q. c #D1CBAE",
"w. c #E3D3B1",
"e. c #DAE0BC",
"r. c #82B7C6",
"t. c #81B8C6",
"y. c #81B5C9",
"u. c #84C4CA",
"i. c #9CC4C8",
"p. c #84D5CF",
"a. c #8AC3D5",
"s. c #85C4DC",
"d. c #8CC2D8",
"f. c #94CDDD",
"g. c #9ACDDF",
"h. c #8AD3D7",
"j. c #99D1DE",
"k. c #B7CCC3",
"l. c #ADCCD4",
"z. c #AECAD9",
"x. c #B2CBD1",
"c. c #AAD0DD",
"v. c #B8D7D6",
"b. c #86C5E0",
"n. c #8FCFE9",
"m. c #8ECFE3",
"M. c #93CEE3",
"N. c #98CFE3",
"B. c #8FD0E6",
"V. c #8ED0EA",
"C. c #95D1E4",
"Z. c #9AD0E1",
"A. c #ABDFED",
"S. c #ACDFF0",
"D. c #ACE0EE",
"F. c #AEEDFE",
"G. c #A9E5F4",
"H. c #B3EEFE",
"J. c #BAEFFC",
"K. c #ACF2FC",
"L. c #AEF9FF",
"P. c #B5F2FE",
"I. c #BCF2FE",
"U. c #B0F9FF",
"Y. c #BDFBFF",
"T. c #BDF8F2",
"R. c #D8C7C6",
"E. c #C5DCC9",
"W. c #DBD9C9",
"Q. c #C2D6DA",
"!. c #C8DEDC",
"~. c #C4D8D7",
"^. c #D6D7D7",
"/. c #DCDBD5",
"(. c #CDE2D1",
"). c #D9E9DA",
"_. c #E1E5D7",
"`. c #C5DDE3",
"'. c #CAEEF5",
"]. c #CDEDFA",
"[. c #D0EDFB",
"{. c #C1F3F6",
"}. c #CDF4F4",
"|. c #C2F4FD",
" X c #C2FBFF",
".X c #CCFDFF",
"XX c #CBF5F8",
"oX c #D3F3F7",
"OX c #D5FAFF",
"+X c #D1F4F8",
"@X c #C9EDEB",
/* pixels */
"|.|.I.D.|.XXXX`.=.*.l.c.'.`.=.*.v.+XXXI.S.I.H.C.",
"|.|.I.r.I.{.XX!.&.O.x.c.'.!.O.O.~.+X{.I.y.I.I.N.",
"|.I.a.f. XT.}.(.@.@.k.l.@XE.>.#.E.}.{. Xf.a.F.V.",
"D.r.f. XK.L.T.5.8.7.-.i.v.3.9.:.5.T.T.K.Y.C.~ s.",
"|.I. XK.[ ..} 2.7.T q.4.).e.W W 2._ } { K. XH.n.",
"|.|.{.U. .{ ! 6.T v q.q.e.w.v n O.! ( | L.I.P.M.",
"|.|.|.U...' $.N c D J M M J G J m $._ | L.Y.P.M.",
"|.I. XF.] u.o.M J F H I J H H U L t _ ` K.Y.H.m.",
"A.r.f.|.H.Q.M o.H I H H H H I H o.p Q.H. XZ./ b.",
"I.I.d.f.+X`.p x H F q F H 0 x H x r Q.OXN.s.F.n.",
"P.I.H.~ H.`.m u q 9 z I I x u u y r Q.I.^ F.H.n.",
"j.C.N.M.N.z.O.K P H z x x x x L i m x.j.M.M.M.M.",
"I.J.I.D.J.'.R.M L x 0 w 0 u H L p 0.oXJ.D.P.H.C.",
"|. XI.y.J.}.).o.J D w w 9 q D J r /.+XY.y.P.I.C.",
"I.I.a.f. X}.).#.C C V , , z C C r W.}. XC.a.H.n.",
"D.t.f.Y.F.{._.;.,.R R R R E R ,.;._.{.K.Y.M./ s.",
"I.I. XK.[ h.&.H 6 A 7 S S 7 A 6 G &.h.` F. XF.C.",
"|.|.{.L.| ) X.> . 5 + 7 7 + 5 . > X.) | K.I.P.M.",
"|.|.I.U.| u.M < % O - 3 3 - O % < i u...L.Y.H.M.",
"|.|. XP.] i.q 1 $ X = 2 2 = X & 1 l i.] F. XH.M.",
"D.y.N.|.H./.j 4 $ X = 2 2 = X & 2 j ^.I. XC./ b.",
"I.I.a.f.OX0.a 4 $ o * 4 4 * o & 4 a R.OXf.a.H.n.",
"P.I.F.y.].%.j d ; : ; f h % : % 1 j 1.[.^ F.K.n.",
"C.M.M.d.z.%.s k d   f h d h   1 k s 1.z.y.V.B.m."
};
