/* XPM */
static char *_93_2dcb17da503b7ac5875fa00bde3274b171c6d8917b96b40ebe585391028dc9b4[] = {
/* columns rows colors chars-per-pixel */
"24 24 109 2 ",
"   c #AAA27B",
".  c #C2A279",
"X  c #56B4CD",
"o  c #54B9D5",
"O  c #5ABAD3",
"+  c #55BDD8",
"@  c #7CB9CC",
"#  c #6BBFD7",
"$  c #6ABED8",
"%  c #77BAD2",
"&  c #6BC0D5",
"*  c #6ECDDB",
"=  c #70CEDA",
"-  c #5AC5E1",
";  c #5BC8E4",
":  c #77CCE1",
">  c #7CCDE2",
",  c #6FD9E9",
"<  c #7FDEE4",
"1  c #7ED1E9",
"2  c #71DAE9",
"3  c #7DDEEE",
"4  c #67DEF3",
"5  c #7BD7F0",
"6  c #76DEF6",
"7  c #79DAF2",
"8  c #7CE1EF",
"9  c #6FE2FD",
"0  c #76E2F6",
"q  c #7DE2F6",
"w  c #72E3FD",
"e  c #7AE6FE",
"r  c #AC9B81",
"t  c #B3A48D",
"y  c #96ADA7",
"u  c #B3B0A7",
"i  c #A0BDBB",
"p  c #B2C7A8",
"a  c #BCCDAD",
"s  c #B1DEBD",
"d  c #E5D29A",
"f  c #DDE3B3",
"g  c #82B7C7",
"h  c #85B9C7",
"j  c #83B8C8",
"k  c #8AC6C6",
"l  c #97CFCE",
"z  c #92DBCA",
"x  c #8BC5D5",
"c  c #8FCBD5",
"v  c #85C5DD",
"b  c #8AC4D8",
"n  c #95CDDD",
"m  c #85D2DA",
"M  c #85DADF",
"N  c #92D6D5",
"B  c #92DBD2",
"V  c #98D9D3",
"C  c #93D2DE",
"Z  c #AADFC5",
"A  c #93E5DF",
"S  c #BAF0CE",
"D  c #85C5E0",
"F  c #83CFE6",
"G  c #8ECFE5",
"H  c #8FCFE9",
"J  c #92CFE3",
"K  c #91CEE9",
"L  c #83D1E7",
"P  c #8CD2E5",
"I  c #82DEE5",
"U  c #83D2EA",
"Y  c #8CD3EA",
"T  c #81DDED",
"R  c #8ADDED",
"E  c #93D1E3",
"W  c #99D2E0",
"Q  c #91D9E7",
"!  c #90D2E8",
"~  c #81DEF2",
"^  c #AEDFED",
"/  c #8CE5E9",
"(  c #80E1F5",
")  c #8CE3F7",
"_  c #83E3FC",
"`  c #8CE3F9",
"'  c #9EEBFB",
"]  c #9FF5FF",
"[  c #AAE8E3",
"{  c #ABE0EE",
"}  c #B1F5E6",
"|  c #ABE0F0",
" . c #A3EDFE",
".. c #ADEEFF",
"X. c #B2EEFF",
"o. c #BBEFFA",
"O. c #A4F5FF",
"+. c #ADF3FE",
"@. c #A3F8FF",
"#. c #AFF8FF",
"$. c #B4F3FF",
"%. c #BCF4FE",
"&. c #B1F9FF",
"*. c #BEFCFF",
"=. c #CFF8D0",
"-. c #E0EDC1",
";. c #E1F5C2",
":. c #C2F4FE",
">. c #C2FBFF",
/* pixels */
":.:.%.^ :.:.:.:.^ %.%.W %.:.%.^ :.:.:.:.^ %.$.J ",
":.>.%.g o.:.:.%.g $.$.! %.*.X.@ %.>.:.o.h o.%.E ",
"o.%.b n >.:.%.*.P L O.& = +.L P *.%.%.>.n x ..K ",
"| g n :.+.&.&. .) 5 _ O X _ 7 ` ' &.#.+.>.n @ D ",
":.o.>.X.= 2 q 7 6 e e + o _ e 6 0 q 2 * +.>.X.J ",
":.:.:.&.2 4 w w w w e ; - e 6 w w 9 9 , +.%.X.J ",
":.:.:.&.q w w w w 9 w w w w 9 9 9 9 9 q &.*.%.J ",
":.%.>.' 7 w 9 w w 9 w w w 6 w w w 9 w 7 ' *.X.E ",
"{ @ Y ` 6 w w w 9 9 w q q ~ T q w w w 6 ` Y % v ",
"%.$.> 5 6 w w w ~ R Q C l k m ~ w w w 0 6 1  .Y ",
"$.&.O._ e e w ~ c i u t   a [ I 0 w e e _ O.+.K ",
"W E # O + ; w ~ x y r . d -.V 3 w w ; + O $ Y P ",
"%.$.= X o - w w ( N p f ;.s I 0 w w ; o X : +.J ",
":.*.+.` _ e w 9 w I Z =.S z ( w 9 w e e _ @.$.J ",
":.$.F 5 w w w 9 w 8 B } A < 0 w 9 9 w w 7 U  .Y ",
"{ @ P ` 6 w 9 9 w 0 I / 8 0 w 9 w 9 w 0 ) U % D ",
":.%.*. .7 w 9 w 9 w 0 6 w w w 9 9 9 w 6 ' *.$.G ",
":.:.%.&.q 9 w 9 9 9 w w w 0 w w 9 w w q +.%.$.E ",
":.:.%.&., 9 w w w 6 e ; ; e 6 w w w 4 2 #.%.X.E ",
":.:.:.+.* , q 0 6 e e o O _ w 6 6 q 2 * +.>.X.J ",
"^ j n *. .+.+.' ) 7 _ O X _ 7 ` ' #.+.+.*.J @ D ",
"%.$.x J *.*.*.>.Y U O.$ : O.U U *.%.*.>.E v ..K ",
"$.$...@ ..$.$.$.%  .+.Y ..$...% ..$.$.X.@ ..$.Y ",
"n E G v G P n n v H G P E E H v n C J G D H G G "
};
