/* XPM */
static char *_1307_2dba3a422561652c2887d10092dbc3a9a6dbbfb85d767905c9640279737db750[] = {
/* columns rows colors chars-per-pixel */
"24 24 173 2 ",
"   c #8C7368",
".  c #867C7F",
"X  c #887E7F",
"o  c #9A7F74",
"O  c #8B827E",
"+  c #978173",
"@  c #9B8276",
"#  c #9D8877",
"$  c #96827F",
"%  c #9B857B",
"&  c #96897F",
"*  c #9D8A7B",
"=  c #A28A7E",
"-  c #A18675",
";  c #AE927E",
":  c #BD9A7B",
">  c #6B7985",
",  c #7D7C83",
"<  c #8D7F83",
"1  c #847B80",
"2  c #748187",
"3  c #7E878C",
"4  c #79878D",
"5  c #638E92",
"6  c #698C9A",
"7  c #7D8A93",
"8  c #728F9D",
"9  c #7F909A",
"0  c #7898A7",
"q  c #7CA0B0",
"w  c #7EB6BD",
"e  c #868383",
"r  c #8B8384",
"t  c #84858A",
"y  c #8B868A",
"u  c #838A8D",
"i  c #8C8C8D",
"p  c #948485",
"a  c #998582",
"s  c #968A85",
"d  c #988A85",
"f  c #928689",
"g  c #978989",
"h  c #988889",
"j  c #9D918F",
"k  c #858D95",
"l  c #8D8D92",
"z  c #8B8F98",
"x  c #858D98",
"c  c #958F91",
"v  c #8E969B",
"b  c #8B9593",
"n  c #9E9192",
"m  c #969895",
"M  c #9A959A",
"N  c #99999E",
"B  c #999894",
"V  c #A58C82",
"C  c #A98E83",
"Z  c #A79080",
"A  c #AB9584",
"S  c #AF9886",
"D  c #AC9688",
"F  c #AD998C",
"G  c #B39983",
"H  c #BD9D84",
"J  c #B29C8B",
"K  c #A59B9C",
"L  c #B39F91",
"P  c #BEA086",
"I  c #B6A394",
"U  c #BFA99B",
"Y  c #8697A2",
"T  c #819EA1",
"R  c #919BA7",
"E  c #9D9CA2",
"W  c #929CA8",
"Q  c #A69DA2",
"!  c #8CA1AE",
"~  c #9EA3AC",
"^  c #95A6B3",
"/  c #94A8B3",
"(  c #90B0BD",
")  c #A1A4AC",
"_  c #A6B4BC",
"`  c #ACB4BC",
"'  c #B1B5BC",
"]  c #C5A283",
"[  c #CAA787",
"{  c #C4A58D",
"}  c #C8A688",
"|  c #C7A98F",
" . c #C9A889",
".. c #D7AF8C",
"X. c #D8B08D",
"o. c #C9AA94",
"O. c #C3AE9D",
"+. c #D7B496",
"@. c #DBB594",
"#. c #D7B498",
"$. c #E0BD9F",
"%. c #DEBCA1",
"&. c #D9BDA8",
"*. c #E1BFA3",
"=. c #DFC0AC",
"-. c #E7C3A4",
";. c #E9C5A6",
":. c #E3C3AA",
">. c #EBCAAE",
",. c #F6CFAD",
"<. c #F7D2AD",
"1. c #E9CAB0",
"2. c #EACFBE",
"3. c #F6D3B4",
"4. c #F4D5BD",
"5. c #F9D6BA",
"6. c #F7D9BF",
"7. c #FBDABC",
"8. c #83B6C4",
"9. c #8BB4CA",
"0. c #8CBECD",
"q. c #95BFCF",
"w. c #99B9C8",
"e. c #91B5C1",
"r. c #8CBBD1",
"t. c #95BFD5",
"y. c #A9B7C0",
"u. c #A7B9C3",
"i. c #A3BFCB",
"p. c #85C2CA",
"a. c #84C3DD",
"s. c #8DC6DF",
"d. c #8FCCDF",
"f. c #82CBD2",
"g. c #97C7DB",
"h. c #92CDDF",
"j. c #96C4D8",
"k. c #9CD0DF",
"l. c #A5C3CE",
"z. c #A2C3D5",
"x. c #AFCCD2",
"c. c #A4C9D8",
"v. c #B8CFD5",
"b. c #B7CBD2",
"n. c #B3D4DC",
"m. c #8ECFE4",
"M. c #8FCFE8",
"N. c #91CEE2",
"B. c #91CDE9",
"V. c #9BD1E2",
"C. c #A2D2E3",
"Z. c #AFD3E1",
"A. c #ACE0EE",
"S. c #AEE2F0",
"D. c #B0E1F0",
"F. c #B1EDF7",
"G. c #B2EEF8",
"H. c #BBEDFE",
"J. c #BDE4F3",
"K. c #BDF2FD",
"L. c #BEF9FF",
"P. c #B7F2FA",
"I. c #CCD7DE",
"U. c #F7D8C3",
"Y. c #FBDDC5",
"T. c #FCE0C8",
"R. c #C2DCE3",
"E. c #C3E6F4",
"W. c #C4EFFF",
"Q. c #C3F3FE",
"!. c #C8F4FC",
"~. c #C6FAFF",
"^. c #CAFBFF",
/* pixels */
") 7 J.S.Q.Q.Q.Q.Z.L.H.N.K.Q.K.A.Q.Q.Q.Q.Z.E.9 x ",
"t 3 c.p.P.Q.Q.K.8.P.P.V.K.~.K.8.P.Q.Q.K.p.c.9 1 ",
"y k ! V.~.L.Q.^.C.j.H.V.Q.!.g.C.^.Q.L.L.C.q x r ",
"y u ( ^.G.L.!.n.z.0 6 q.Z.6 8 l.n.!.L.F.^.e.u r ",
"f u v.K.f.p.0 u i N 3 / y.3 N i u v p.f.P.n.u < ",
"f y x.^.w 5 b s $ s l ~ ' i a $ a b 5 w ^.x.u < ",
"f t b.R.7 m s U 2.F t ) ' O F 2.O.& B 7 n.v.y r ",
"r M I.v j   ; | | # y ~ ` y % { o.;   F v I.N 1 ",
"r Q E c $ &.5.,.3.J e ~ ` e J 4.>.5.:.% g E Q 1 ",
"< K f h @ %.@.@.$.A y ~ ' r A #.@.@.*.- d y Q . ",
"r h p % { @.....+.= y ~ ` r = +.....+.{ % h n 1 ",
"p h a * 1.<.<.<.5.J r ~ ~ e J 7.,.<.<.>.= a h < ",
"p p h o : : : : P + i ~ ` y + P : : : : o a p < ",
"f p $ V 4.7.7.3.T.I O ~ ' e I Y.7.7.7.7.C $ p < ",
"r p a o P ] ] ] { # r ~ ' r # { ] ] ] P @ a p < ",
"s p a a =.-.-.-.1.A r ~ ' r A :.-.-.-.:.= $ p < ",
"p f p V *.;.;.;.>.D e ~ ' y A 1.-.-.;.:.= & p < ",
"p p a o {  .} } o.* y ~ ' r # |  . . .P # a g < ",
"f p < C U.U.Y.7.T.I e ~ ' O L T.6.7.7.6.C < p < ",
"p f p a S G G D S d k ~ ' b s F G S P A a g f < ",
"< y y E < O O O y l 2 / u.2 z y r O O X K y f < ",
"f l R ^ _ _ _ ` Y ! w.c.E.q.W Y ` ` _ _ ^ R l < ",
"y x i.t.W.!.Q.Q.r.H.Q.V.H.!.H.r.Q.~.W.W.t.t.x 1 ",
", > 9.s.h.h.N.N.a.M.B.N.N.N.B.r.N.m.h.N.m.r.> , "
};
