/* XPM */
static char *_168_5392309fa86626f55cb07c44269713edad1779a54c8b76fd660103c9346fa8fb[] = {
/* columns rows colors chars-per-pixel */
"24 24 218 2 ",
"   c #A46F3D",
".  c #975C58",
"X  c #AD5C48",
"o  c #BD584E",
"O  c #B75C52",
"+  c #BF5A50",
"@  c #AB5B54",
"#  c #9C7742",
"$  c #A86E40",
"%  c #B06D42",
"&  c #BE7049",
"*  c #AA635B",
"=  c #B46057",
"-  c #B1675E",
";  c #916461",
":  c #9A7578",
">  c #89797C",
",  c #A66B66",
"<  c #BD6C61",
"1  c #B16B61",
"2  c #B2736C",
"3  c #BB7C72",
"4  c #A8776F",
"5  c #C15A4D",
"6  c #CC5C4D",
"7  c #CF5546",
"8  c #D45545",
"9  c #D25849",
"0  c #DB5E4A",
"q  c #C95D50",
"w  c #E25E4A",
"e  c #DD604E",
"r  c #CD6A54",
"t  c #C46756",
"y  c #D46454",
"u  c #DE6555",
"i  c #D86D5C",
"p  c #D76D57",
"a  c #DB7157",
"s  c #E5624E",
"d  c #E8644D",
"f  c #E96651",
"g  c #EC6B56",
"h  c #E56D5A",
"j  c #EE6F59",
"k  c #E56853",
"l  c #F26D56",
"z  c #F26E59",
"x  c #EC725B",
"c  c #E37458",
"v  c #F2715B",
"b  c #CB6E63",
"n  c #CB7566",
"m  c #DB7565",
"M  c #D87866",
"N  c #C27D76",
"B  c #E77261",
"V  c #72B866",
"C  c #7AAB73",
"Z  c #73C55D",
"A  c #71C556",
"S  c #76C665",
"D  c #71C674",
"F  c #7EC673",
"G  c #6AC46C",
"H  c #BB815C",
"J  c #A89A5D",
"K  c #83BC5C",
"L  c #94A257",
"P  c #A4A25A",
"I  c #B7807A",
"U  c #B39768",
"Y  c #8AB367",
"T  c #958A52",
"R  c #C48075",
"E  c #DA8278",
"W  c #E2857A",
"Q  c #8AC25D",
"!  c #917C83",
"~  c #8D7984",
"^  c #67BF83",
"/  c #78B48D",
"(  c #7AB9A6",
")  c #5CC791",
"_  c #71CA89",
"`  c #5ED5BF",
"'  c #71D0A8",
"]  c #7FC1B3",
"[  c #69D2AB",
"{  c #7CB6CE",
"}  c #7AB8CF",
"|  c #7EB8D0",
" . c #56D6D5",
".. c #6ACDDA",
"X. c #79C9D3",
"o. c #6ED4D9",
"O. c #79D5DC",
"+. c #76D7CC",
"@. c #53D4E2",
"#. c #6CDBE7",
"$. c #6CDCE9",
"%. c #75D7E2",
"&. c #958F91",
"*. c #918B93",
"=. c #B88884",
"-. c #AB928B",
";. c #AA9391",
":. c #95A19F",
">. c #8FBC85",
",. c #BEA19B",
"<. c #9093A2",
"1. c #A69EA3",
"2. c #BC9FA1",
"3. c #9DB0B7",
"4. c #91A8B8",
"5. c #B5ABAA",
"6. c #BEB0AD",
"7. c #A7AAB6",
"8. c #ABB6BD",
"9. c #A3B4BC",
"0. c #BDB2B4",
"q. c #A9A9AB",
"w. c #CF8680",
"e. c #D38D83",
"r. c #C2918A",
"t. c #D59D9B",
"y. c #C69694",
"u. c #E18C85",
"i. c #D7A08C",
"p. c #C4BB9A",
"a. c #C6A9A7",
"s. c #DDADAD",
"d. c #C7B4B8",
"f. c #DEB6B4",
"g. c #ECACAA",
"h. c #97DCA3",
"j. c #AED0AB",
"k. c #A5C1AB",
"l. c #A6EEAF",
"z. c #B0E0B6",
"x. c #C1C1A9",
"c. c #DCC3BF",
"v. c #C6D2A4",
"b. c #84B6C5",
"n. c #82B8C5",
"m. c #8AB7CC",
"M. c #98B7C6",
"N. c #ADBBC7",
"B. c #B9BEC4",
"V. c #C0BDC4",
"C. c #87C3C8",
"Z. c #97C7CE",
"A. c #8FD7C1",
"S. c #8AC3D4",
"D. c #85C4DD",
"F. c #8AC4DA",
"G. c #97CCDB",
"H. c #98D1DC",
"J. c #96D0DE",
"K. c #8FD6D5",
"L. c #B4C1CC",
"P. c #A3CADA",
"I. c #ABCCD7",
"U. c #B4C1D1",
"Y. c #BCF8DF",
"T. c #A9EACD",
"R. c #85C5E0",
"E. c #8ECEE6",
"W. c #8ECFE9",
"Q. c #93CFE3",
"!. c #91CFE8",
"~. c #8FD0E5",
"^. c #8ED0E8",
"/. c #93D0E3",
"(. c #9ED1E6",
"). c #ACDFED",
"_. c #B0DEED",
"`. c #ABE0EE",
"'. c #A4EFEB",
"]. c #BCFCEC",
"[. c #AFEEF7",
"{. c #AEEDFF",
"}. c #B2EEFE",
"|. c #BBEBFD",
" X c #B7E7FB",
".X c #ACF2FC",
"XX c #AFF9FF",
"oX c #B5F1FE",
"OX c #BCF3FE",
"+X c #BDFBFF",
"@X c #B9F7FA",
"#X c #B7E6EE",
"$X c #D8CDCC",
"%X c #DFD6D5",
"&X c #C9C7CE",
"*X c #E5DBDA",
"=X c #DAE8CF",
"-X c #E0E8D9",
";X c #DFDAE0",
":X c #E7DDE5",
">X c #C4E8EC",
",X c #D4E4E9",
"<X c #C2EEFC",
"1X c #CCEEF9",
"2X c #C8E9F4",
"3X c #D3EEF9",
"4X c #D7EBF6",
"5X c #C2F4FD",
"6X c #C9F3FD",
"7X c #C4FBFE",
"8X c #C6F4F5",
"9X c #D2F6FC",
"0X c #DBF6FF",
"qX c #ECEAEF",
"wX c #EBE5E5",
"eX c #E4F5FC",
"rX c #E6F1F3",
"tX c #FBE9E5",
/* pixels */
"5X5X5X).5X5X5X5X`.@XoXH.|.7X5X_.8X9X6X5X_.OXoX/.",
"5X7X|.b.OXOX8X|.b.OXOXH.5X8X>XM.,XI.,X9Xb.OXOX/.",
"OXOXS.J.+X@X].@XH.S.oXC.T.>X*.q.eX8.&.qXP.m.oX^.",
"`.n.G.+X.X.Xh.T.].A.] ( / q.5.: $XtX: 6.eXG.| R.",
"OX|.7X.Xo.o.[ _ _ l.T.C C v.t.= 1 e.b , *XeX X!.",
"7X5X5XXX#. .[ D D D Q V Y T X y i p i b r.%X4XP.",
"5X5XOXXX#. . .) D Z Z K L # r x v B u r q N d.V.",
"5X<X7X}.X.o.+.' D Z A Q P   a l l g h h h m 3 t.",
").b.P.0X>X8X8XY.h.S S Q P $ a z z z z z j h m M ",
"<X1XN.1.-.-.6.-Xj.>.Y Q P % c j s g z j B i m m ",
"4X;XI @ O O X 2 -.=Xz.>.U & x l f 0 u m n N ! y.",
"0.> . = + q y 5 * -.x.p.H p x v z k 6 W g.a.f.V.",
"q.1.d.5.=.* 5 6 q r R M p c l s w e h u.s.:X2XP.",
",XeX4X9.wXf.- 5 u v l g l l s s v e u M : B.1XQ.",
"6X8XZ.G.9XrXc.* p l l z l l l l z g h u.d.4.|.W.",
").{ G.5X.X@X9X6.< B l v g d f l z j m e.qXP.{ R.",
"OX|.7X.Xo.$.%.Z.2.n B k 8 8 8 f z j M r.,X8XoX/.",
"5X5X5XXX#. .@.O.:Xe.B u 7 9 8 e B m I 5.8XOXoX/.",
"OXOX5XXX$.@.@.~.%X2 b m y 9 7 y m 3 :.Z.@X+XoX/.",
"5XOX7X.X..$...C.5.; r.t.w.< + b e.a.Z.S.[.7X}.Q.",
"`.n.J.+X.XXX#X3.*.~ 7.N.&X1., 2 f.$X8X[.5X/.| D.",
"OXOXF./.+X+X3XL.<.N. X(.<X3X0.~ &.N.6X+X/.F.oX^.",
"oXOX{.} {.oX|.|.m.|.}./. X|.<XM._.>X|.oX} {..X^.",
"/.~.E.D./././.G.D.^.^.~./.!./.F.(.G.J.~.R.^.!.~."
};
