/* XPM */
static char *_4504_460b1d9e49685eba80d081428182c662eb34123ffc18a067dda0f25e2e26e5d8[] = {
/* columns rows colors chars-per-pixel */
"24 24 146 2 ",
"   c #C2F4FF",
".  c #C2F4FF",
"X  c #BFF2FE",
"o  c #A7E0F9",
"O  c #BFF2FE",
"+  c #C2F4FF",
"@  c #BFF2FE",
"#  c #B8EEFB",
"$  c #93D8EE",
"%  c #BBF0FC",
"&  c #C3F4FF",
"*  c #B8EEFB",
"=  c #8CD4EC",
"-  c #C3F5FF",
";  c #B6ECFC",
":  c #81C5F1",
">  c #BCEFFE",
",  c #C2F4FF",
"<  c #B7ECFD",
"1  c #B9EFFB",
"2  c #93D8EE",
"3  c #BBF0FC",
"4  c #C4F5FF",
"5  c #B9EFFB",
"6  c #8DD4EC",
"7  c #BFF2FE",
"8  c #B6ECFD",
"9  c #8ACCF3",
"0  c #94D3F5",
"q  c #C3F4FF",
"w  c #C3F4FF",
"e  c #8BCCF3",
"r  c #ACE6F9",
"t  c #91D7EE",
"y  c #B8EEFC",
"u  c #B7ECFD",
"i  c #ADE6F9",
"p  c #8BD3EC",
"a  c #A7E0F9",
"s  c #81C5F1",
"d  c #94D3F5",
"f  c #BFF2FE",
"g  c #ADF1FC",
"h  c #B7F2FE",
"j  c #95D3F5",
"k  c #7CC2EF",
"l  c #86CEED",
"z  c #A3DFF7",
"x  c #81C5F1",
"c  c #7CC2F0",
"v  c #7DC7EA",
"b  c #BCEFFE",
"n  c #ADF1FC",
"m  c #57E2F2",
"M  c #5CE3F2",
"N  c #C3F4FF",
"B  c #B2EAFA",
"V  c #92D7EE",
"C  c #B8EEFC",
"Z  c #BCF0FE",
"A  c #B2EAFA",
"S  c #8BD3EC",
"D  c #C2F4FF",
"F  c #5CE3F2",
"G  c #40DEEF",
"H  c #C3F5FF",
"J  c #B8EEFB",
"K  c #93D8EE",
"L  c #BBF0FC",
"P  c #C3F5FF",
"I  c #B8EEFB",
"U  c #8DD4EC",
"Y  c #BFF2FE",
"T  c #B7ECFD",
"R  c #8BCCF3",
"E  c #95D3F5",
"W  c #C3F4FF",
"Q  c #8BCCF3",
"!  c #ADE6F9",
"~  c #91D7EE",
"^  c #B8EEFC",
"/  c #B7ECFD",
"(  c #ADE6F9",
")  c #8BD3EC",
"_  c #B9EFFC",
"`  c #ACE6F9",
"'  c #B2EAFA",
"]  c #B8EEFB",
"[  c #B0EAF8",
"{  c #91D7ED",
"}  c #B2EAF9",
"|  c #B9EFFC",
" . c #B0EAF8",
".. c #8CD4EC",
"X. c #93D8EE",
"o. c #91D7EE",
"O. c #93D8EE",
"+. c #91D7EE",
"@. c #91D7EE",
"#. c #89D2EB",
"$. c #91D7EE",
"%. c #93D8EE",
"&. c #91D7EE",
"*. c #88D2EA",
"=. c #BBF0FC",
"-. c #B8EEFC",
";. c #B8EEFC",
":. c #BBF0FC",
">. c #B8EEFC",
",. c #B2EAF9",
"<. c #B4ECFA",
"1. c #BBF0FD",
"2. c #B2EAF9",
"3. c #8CD4EC",
"4. c #C4F5FF",
"5. c #B7ECFC",
"6. c #81C5F1",
"7. c #BCF0FE",
"8. c #C3F5FF",
"9. c #B7ECFD",
"0. c #B9EFFB",
"q. c #93D8EE",
"w. c #BBF0FC",
"e. c #C4F5FF",
"r. c #B9EFFB",
"t. c #8DD4EC",
"y. c #5CE3F2",
"u. c #91D7EE",
"i. c #8BD3EC",
"p. c #B8EEFB",
"a. c #B9EFFC",
"s. c #7CC2F0",
"d. c #B8EEFB",
"f. c #ADE6F9",
"g. c #B0EAF8",
"h. c #B2EAF9",
"j. c #B9EFFC",
"k. c #B0EAF9",
"l. c #8CD4EC",
"z. c #8DD4EC",
"x. c #7DC7EA",
"c. c #8DD4EC",
"v. c #8CD4EC",
"b. c #8DD4EC",
"n. c #88D1EA",
"m. c white",
/* pixels */
"  . X o O + + O o @ # $ % & X o O + + O o @ * = ",
". - ; : > , , > : < 1 2 3 4 ; : > , , > : < 5 6 ",
"7 8 9 0 q w w q 0 e r t y u 9 0 q w w q 0 e i p ",
"a s d f g h h g f j k l z x d f g h h g f j c v ",
"O b q n m M M m n N B V C Z q n m M M m n N A S ",
"+ D w h F G G F h H J K L P w h F G G F h H I U ",
"+ D w h F G G F h H J K L P w h F G G F h H I U ",
"O b q n m M M m n N B V C Z q n m M M m n N A S ",
"a s d f g h h g f j k l z x d f g h h g f j c v ",
"Y T R E W H H W E Q ! ~ ^ / R E W H H W E Q ( ) ",
"# _ ` k ' ] ] ' k ! [ { } | ` k ' ] ] ' k !  ...",
"$ X.o.l V O.O.V l +.@.#.$.%.o.l V O.O.V l +.&.*.",
"% =.-.z ;.:.:.;.z >.,.$.<.1.-.z ;.:.:.;.z >.2.3.",
"& 4.5.6.7.8.8.7.6.9.0.q.w.e.5.6.7.8.8.7.6.9.r.t.",
"7 8 9 0 q w w q 0 e r t y u 9 0 q w w q 0 e i p ",
"a s d f g h h g f j k l z x d f g h h g f j c v ",
"O b q n m M M m n N B V C Z q n m M M m n N A S ",
"+ D w h y.G G y.h H J K L P w h y.G G y.h H I U ",
"+ D w h F G G F h H J K L P w h F G G F h H I U ",
"O b q n m M M m n N B V C Z q n m M M m n N A S ",
"a s d f g h h g f j k l z x d f g h h g f j c v ",
"Y T R E W H H W E Q ! u.^ / R E W H H W E Q ( i.",
"p.a.i s.A d.d.A s.f.g.&.h.j.i s.A d.d.A s.f.k.l.",
"= z.p x.S c.c.S x.) v.*.3.b.p x.S c.c.S x.) l.n."
};
