/* XPM */
static char *_893_2452bfc4fc3e14383b13dd45dee9192f1cef7634b9e78499f61f28051fb99070[] = {
/* columns rows colors chars-per-pixel */
"24 24 188 2 ",
"   c #003B36",
".  c #004E49",
"X  c #00685A",
"o  c #00796B",
"O  c #CA103F",
"+  c #E70C3F",
"@  c #F3093E",
"#  c #9C1D4A",
"$  c #B71743",
"%  c #B52950",
"&  c #BE3A62",
"*  c #CB1143",
"=  c #C71548",
"-  c #D81243",
";  c #E60D42",
":  c #EC1144",
">  c #D33C68",
",  c #FF3462",
"<  c #FD3B68",
"1  c #E93A65",
"2  c #B24972",
"3  c #AC5172",
"4  c #CD476B",
"5  c #D6456B",
"6  c #C75173",
"7  c #EB456D",
"8  c #F2436C",
"9  c #C26181",
"0  c #DF628A",
"q  c #CD708F",
"w  c #C47998",
"e  c #E17899",
"r  c #D77CA8",
"t  c #EF7AA7",
"y  c #F175A8",
"u  c #029183",
"i  c #009289",
"p  c #0C9D90",
"a  c #1A9E91",
"s  c #249A8E",
"d  c #249C94",
"f  c #2A9893",
"g  c #09A696",
"h  c #19A796",
"j  c #15B29D",
"k  c #2CA39D",
"l  c #15B5A4",
"z  c #2CADA5",
"x  c #26BDAC",
"c  c #36B4AC",
"v  c #2EBDB4",
"b  c #33BCB2",
"n  c #3DBEB8",
"m  c #51ACAF",
"M  c #1DCAB5",
"N  c #1DCDB9",
"B  c #1FC7B6",
"V  c #24C1AE",
"C  c #24C5B3",
"Z  c #2BC2B6",
"A  c #23CAB4",
"S  c #2CCBBB",
"D  c #28CAB9",
"F  c #31CCBD",
"G  c #3DC4BA",
"H  c #24D3BE",
"J  c #2AD1BD",
"K  c #47C6BF",
"L  c #79B6CC",
"P  c #7AB8CF",
"I  c #7BB9D0",
"U  c #1ED8C1",
"Y  c #2ECFC0",
"T  c #34CCC4",
"R  c #37CCC8",
"E  c #25D7C2",
"W  c #2ED3C4",
"Q  c #25D9C3",
"!  c #2ADDC8",
"~  c #32DBCA",
"^  c #35D5CA",
"/  c #4EC5C5",
"(  c #44CAC9",
")  c #55C8C5",
"_  c #53D5CB",
"`  c #5CDACF",
"'  c #4ADAD7",
"]  c #5EDEDF",
"[  c #6FC7CB",
"{  c #6BCEDA",
"}  c #6CC4D0",
"|  c #77CBDA",
" . c #6CD1DA",
".. c #62DBDE",
"X. c #63D6DB",
"o. c #77D6DB",
"O. c #7BE0DA",
"+. c #65E7DD",
"@. c #4FD4E3",
"#. c #51D5E3",
"$. c #69DAE7",
"%. c #6BDBE9",
"&. c #6ED6E3",
"*. c #76D3E4",
"=. c #5DE2E1",
"-. c #62E2E3",
";. c #7EECE9",
":. c #CA8EA7",
">. c #C09BBA",
",. c #E49FBC",
"<. c #FD9BBD",
"1. c #82B7C6",
"2. c #83B8C6",
"3. c #84B8C8",
"4. c #93BDD3",
"5. c #C2A4CC",
"6. c #DFA9C3",
"7. c #C9B8D2",
"8. c #E6A4C0",
"9. c #EBB9D6",
"0. c #EFBCE7",
"q. c #8AC3D6",
"w. c #86C4DB",
"e. c #89C6D8",
"r. c #95CEDD",
"t. c #99CEDE",
"y. c #98D2DE",
"u. c #AAC3DB",
"i. c #85C5E0",
"p. c #8ECFE4",
"a. c #8ECFE9",
"s. c #93CFE4",
"d. c #9DCDE1",
"f. c #8DD1E4",
"g. c #86D9E7",
"h. c #8AD5E5",
"j. c #94D1E3",
"k. c #95D5E9",
"l. c #92DAEB",
"z. c #8EDAF1",
"x. c #ABDFED",
"c. c #A9D5F5",
"v. c #ABD9F5",
"b. c #BBD3F2",
"n. c #BCD1E8",
"m. c #84E1E4",
"M. c #86E6E7",
"N. c #94ECEE",
"B. c #8EEFF6",
"V. c #9FEDFA",
"C. c #8EF2F2",
"Z. c #9BFFFE",
"A. c #92F5FB",
"S. c #ACE0EE",
"D. c #A3E3ED",
"F. c #AEEDFE",
"G. c #A6EFF8",
"H. c #B2EEFF",
"J. c #BAEBFB",
"K. c #A7F0F5",
"L. c #ABF2FC",
"P. c #A4FFFF",
"I. c #ADFAFF",
"U. c #A7F0F9",
"Y. c #B4F1FF",
"T. c #BCF3FE",
"R. c #B4FDFF",
"E. c #BDFCFF",
"W. c #D7C4D9",
"Q. c #C1CCEC",
"!. c #DDCAE0",
"~. c #CBC9F3",
"^. c #C7D6F4",
"/. c #E6C5F2",
"(. c #F9DBF9",
"). c #C2EEFF",
"_. c #CFEAFC",
"`. c #CAE3FF",
"'. c #DCE4FD",
"]. c #D5EBFE",
"[. c #DBEBFF",
"{. c #C2F3FD",
"}. c #CCF3FF",
"|. c #C3FBFF",
" X c #D3F3FF",
".X c #EBE7FB",
"XX c #E6EBFE",
"oX c #F7E2FA",
/* pixels */
"{.{.T.x.{.{.{.{.S.)._.^.^.`.).x.{.{.{.{.x.T.H.d.",
"{.|.{.1.T.{.{.J.2.).[.'.Q.^.).2.T.{.{.T.1.T.T.s.",
"{.J.q.r.|.T.T.|.t.4.[.'.~.^.4.t.|.{.T.|.r.q.F.a.",
"S.1.r.E.F.I.R.Y.|.u.7.(.0.5.u.|.L.I.R.L.E.s.P w.",
"{.T.|.L. .%.%.{ H.XXw 0 > 2 .XJ. .%.%.{ L.|.F.s.",
"{.{.T.I.&.#.#.&.{.W.6 1 - $ 6.].*.#.#.&.I.T.Y.s.",
"{.{.{.R.%.#.@.&.[.:.5 < : * 9 .X*.#.@.%.I.E.Y.s.",
"{.T.|.F. .%.%.w.!.6 1 , @ - % 9.e.$.%.{ G.|.H.s.",
"x.1.r.E.K.I.K._.8.6 8 , @ + O e '.L.I.L.E.y.I i.",
"T.T.q.s.|.T.}..Xq 5 8 < : ; O > (.}.{.|.j.e.F.a.",
"Y.T.H.L H.J.{.7.3 4 5 > = * = # >.[.J.Y.L F.F.p.",
"y.j.h.h.l.y.n.W.8.<.<.<.t y t r 5.n.d.l.h.l.k.f.",
"Y.L.M.M.N.I. X.XoXoXoX(././././.~.b.F.N.*.M.U.h.",
"E.M.c Z K K K.{.{.).{.J.v.c.c.c.v.l.m f k f | l.",
"E.m.b Z A V G _ _ _ _ _ / / / / ) c a h h d | z.",
"D.[ G C N N H H S J E H C x Z Z V V h h h k } | ",
"T.R.M.Z V N H Q E S Q E M C b Z C A j h s o.I.f.",
"{.E.I.;.F A U ! g o ! E B D X u J A j z O.R.I.y.",
"{.T.T.I.-.^ Q Q B l ~ ^ S F g l A A T ..I.R.Y.r.",
"{.{.|.K. .=.~ Q Q ~ l g u p F A M Z ]  .U.|.H.p.",
"x.3.r.E.K.P.+.S E ! i .   o D A x ` P.K.E.j.I i.",
"T.T.q.s.E.R.Z._ Y W T b z b Z v K Z.E.|.j.e.F.a.",
"H.T.F.P H.L.I.A.R T W W S v v n B.I.H.H.P F.Y.k.",
"j.s.a.w.s.j.s.g.$.' ~ Q H T ' X.g.f.s.s.| a.p.p."
};
