/* XPM */
static char *_9360_77d66c2e631c23b8b9e0039c78d99999c7715f5d20da97a2879188e0e3f78255[] = {
/* columns rows colors chars-per-pixel */
"24 24 188 2 ",
"   c #3E372F",
".  c #2E3231",
"X  c #2D393A",
"o  c #393A39",
"O  c #4D3D34",
"+  c #423F3C",
"@  c #453D39",
"#  c #4C382D",
"$  c #36413E",
"%  c #70441D",
"&  c #73491F",
"*  c #4A423D",
"=  c #46413E",
"-  c #53463E",
";  c #5C473C",
":  c #5C4B38",
">  c #6B4625",
",  c #69472B",
"<  c #6F4E2F",
"1  c #724622",
"2  c #734922",
"3  c #7A4E2A",
"4  c #734D2A",
"5  c #6B4A31",
"6  c #6D533F",
"7  c #705239",
"8  c #785333",
"9  c #294143",
"0  c #374648",
"q  c #3C5657",
"w  c #3D7276",
"e  c #434441",
"r  c #4E4946",
"t  c #534742",
"y  c #534944",
"u  c #544C49",
"i  c #414F52",
"p  c #475556",
"a  c #6C594C",
"s  c #645045",
"d  c #7C5D43",
"f  c #765949",
"g  c #7A675A",
"h  c #766257",
"j  c #4F6B6C",
"k  c #536A6F",
"l  c #5A6A6A",
"z  c #737471",
"x  c #81562D",
"c  c #805630",
"v  c #8B6036",
"b  c #8D6239",
"n  c #90643D",
"m  c #81624A",
"M  c #986D44",
"N  c #9F714D",
"B  c #816655",
"V  c #836B59",
"C  c #9D7753",
"Z  c #A47A4F",
"A  c #A77C52",
"S  c #AA7E59",
"D  c #A87D53",
"F  c #B3895E",
"G  c #B5855F",
"H  c #928B7B",
"J  c #AB876A",
"K  c #B98C67",
"L  c #A98C7D",
"P  c #AF907C",
"I  c #CA9D74",
"U  c #CB9E7B",
"Y  c #CDA37C",
"T  c #D2A37D",
"R  c #4C8C92",
"E  c #7F8585",
"W  c #7C9599",
"Q  c #5EB2BC",
"!  c #56A1A7",
"~  c #79B9CF",
"^  c #7BB7CF",
"/  c #6FB8CA",
"(  c #6FCDD9",
")  c #72CEDB",
"_  c #79DBE7",
"`  c #A79082",
"'  c #A59E94",
"]  c #B69987",
"[  c #BFA08C",
"{  c #B9A695",
"}  c #90ACB1",
"|  c #CFA481",
" . c #DBAB86",
".. c #DFAD88",
"X. c #DEB18A",
"o. c #CAA995",
"O. c #D6AD91",
"+. c #CFB59E",
"@. c #D9B396",
"#. c #E0AE89",
"$. c #E3B28B",
"%. c #ECBB95",
"&. c #E5BA9D",
"*. c #EDBE99",
"=. c #E6B690",
"-. c #F1BF9A",
";. c #D7B8A3",
":. c #E7BEA1",
">. c #EFC19E",
",. c #F3C39D",
"<. c #D5C8BE",
"1. c #EAC1A3",
"2. c #ECC6AC",
"3. c #F4C5A2",
"4. c #F6CAAA",
"5. c #E8CBB5",
"6. c #E5CBB8",
"7. c #82B7C6",
"8. c #85B9CC",
"9. c #80B8C7",
"0. c #94BBCC",
"q. c #96B8C2",
"w. c #8BBED3",
"e. c #92C4CC",
"r. c #8AC3D6",
"t. c #85C4DC",
"y. c #8CC3D8",
"u. c #84CFD9",
"i. c #95CCDD",
"p. c #9ACDDE",
"a. c #86D2DA",
"s. c #A0C5D6",
"d. c #A9CBD6",
"f. c #BBCED3",
"g. c #B6D5DA",
"h. c #85C6E0",
"j. c #8FCFE8",
"k. c #93CFE3",
"l. c #99CCE1",
"z. c #8FD1E6",
"x. c #8ED1EA",
"c. c #84DEE7",
"v. c #93D1E3",
"b. c #99D1E1",
"n. c #93D1E8",
"m. c #AADEEE",
"M. c #A8D8E3",
"N. c #BCDDE6",
"B. c #ACDFF0",
"V. c #ACE0EE",
"C. c #BDE4EC",
"Z. c #BCE4EB",
"A. c #ACEDFC",
"S. c #ACECF5",
"D. c #B5ECF6",
"F. c #BAECF4",
"G. c #B2EEFF",
"H. c #BBE7F0",
"J. c #AEF4FD",
"K. c #BDF0F7",
"L. c #B3F2FF",
"P. c #BCF2FE",
"I. c #BEFAFF",
"U. c #CECFCE",
"Y. c #CAC8C3",
"T. c #CED5CD",
"R. c #D9D3C8",
"E. c #C6D4D8",
"W. c #E0D3C3",
"Q. c #E4DFD9",
"!. c #D4E3DE",
"~. c #E4E3DA",
"^. c #C2DBE0",
"/. c #CCE4E9",
"(. c #C7E4E8",
"). c #D4E5E5",
"_. c #CFEEF0",
"`. c #C7EEFD",
"'. c #CDF1F3",
"]. c #C2F4FD",
"[. c #CCF4FD",
"{. c #C4FBFF",
"}. c #C9F5FB",
"|. c #D1F6FC",
" X c #D2F9FE",
".X c #DBF3F2",
"XX c #E3F0F0",
"oX c #F1F4F1",
/* pixels */
"].{.P.m.P.}.`. Xf.z = @ * r E f.|.].}.P.V.P.L.l.",
"].].P.7.F.`. Xd.0 o y y y y e p g.'.}.K.7.L.P.i.",
"P.P.y.i.I.{.(.i o u y t y y u e l (.{.I.i.t.L.z.",
"V.7.i.{.J.{.W . u t y y t t y u o } {.S.I.b.~ t.",
"].P.{.J.) u.q + y t t y - - t y e j a.( A.{.A.k.",
"].].{.J._ Q 9 y O g a # a s O t - q / _ J.I.L.k.",
"].].P.L.c.R X - f :.o.5 m { 6 ; ; 0 ! _ L.I.L.v.",
"].].{.D.a.w X L :.:.:.&.O.1.@.o.h o R a.S.{.G.j.",
"B.7.i.].Z.q   ] :.K I =.-.K K :.V + k H.{.v.~ h.",
"].G.r.M.g.$ O P 4. .=.-.| #.#.2.B * p N.M.t.A.j.",
"G.I.A.w.} X - P 2.%.-.| K -.&.:.g * i d.8.A.A.x.",
"b.l.k.k.q.0 = ` 2.-.-.#.%.-.-.2.h o l d.i.n.n.j.",
"P.P.G.m.}.} p ' 6.-.-.#.#.-.:.5.z l g.}.m.G.G.k.",
"].].P.7.]. X).~.;.%.3.T | -.:.;.Q..X X].7.P.P.l.",
"P.P.y.i.{.'.).H f I #.%.%.#.| m H !.'.{.l.t.G.j.",
"V.7.i.{.F._.T.; 5 | | I I T | < : T.'.D.{.l.^ t.",
"P.P.{.D.e._.R.f > S 4.,.3.4.S > f R._.e.F.{.A.k.",
"].].].F.M..XR.6 4 2 Z I U Z 2 4 5 R..XM.F.I.L.k.",
"].].P.].(..X6.7 Z x & & & % x C 7 W.XXZ.F.{.G.v.",
"].].{.H.^.oX{ , 8 & & & 2 & 2 c , { oXE.H.{.G.k.",
"m.7.p.`./.~.B > & x v v c b c 2 1 B Q./.[.b.^ t.",
"P.P.w.p.E.<.m 2 % F Y I Y T D 1 2 m Y.U.s.y.G.x.",
"P.P.G.0.T.6.J & & n F F F K M 2 1 J 6.U.0.A.L.j.",
"i.k.j.e.Y.6.@.3 % v F Z N F n 1 3 @.5.Y.0.n.z.z."
};
