/* XPM */
static char *_2662_b1a9f3893504c32e17642f179f6132ce8eef63fc544d1163a55cf3d60972aece[] = {
/* columns rows colors chars-per-pixel */
"24 24 46 1 ",
"  c #577782",
". c #587882",
"X c #627D86",
"o c #647F88",
"O c #66828B",
"+ c #69858D",
"@ c #6D8891",
"# c #959B9D",
"$ c #9C9FA0",
"% c #9DA0A0",
"& c #A5A5A4",
"* c #A8A8A7",
"= c #A2A7A8",
"- c #A5A9A9",
"; c #ABADAD",
": c #AFB0AF",
"> c #ACAFB0",
", c #ADB2B3",
"< c #A8B3B9",
"1 c #B2B4B4",
"2 c #B5B8B7",
"3 c #B3B7B9",
"4 c #B4BABD",
"5 c #B9BBBA",
"6 c #BFC1BF",
"7 c #B4BCC0",
"8 c #B8BDC0",
"9 c #BDC2C6",
"0 c #BEC4C8",
"q c #C2C4C4",
"w c #C5C9C7",
"e c #C1C6C8",
"r c #C4CAC9",
"t c #CBCECD",
"y c #CDD1CE",
"u c #CACED0",
"i c #CDD1D3",
"p c #D2D4D2",
"a c #D5D7D8",
"s c #D7DADB",
"d c #DADCDC",
"f c #DCDEE0",
"g c #E4E5E6",
"h c #E6E7E8",
"j c #E7E8E9",
"k c #E8E9EA",
/* pixels */
" OOO++++@@@@@OOOO.OXOOO ",
"O<744wrtssssi74<%%$$%3<O",
"O7000ypdjjkjf09,&&&&:07O",
"O,37qppafpidi904=;:=,94O",
"X%&-5iyr3&&:uteu9996904+",
"X%&;99903&&5gggjs090pp0+",
"X%&,90005*&5jjhhd00wpp0+",
"X%&-74381&&,dpisy900ty9O",
"o=;>:&&;31:22*&:yteie07O",
"o78e5&&:ppppq&&5jggjs07O",
"o78e8&&1ppppw*&6jjhhf07O",
"o<381&&;wq6w5&&:dyydi07O",
"o$-;q51q5&&;1;;1,&&:0r6O",
"o$&3ggghp&&>q9902&&2py0+",
"X$&5hkkka&&>00902&&5ppw+",
"X$&;aywaq&&*7317:&&:w61O",
"o->3,&&;r52q5&&*1>;,>&%X",
"o7808&&5gggka&&>09903&%X",
"o7e88&&5hjjja&&:00005&%X",
"o<383&&;ssafq&&*4337,&$X",
"o$&*5::5099051:5:&&;51-o",
"X$&1ppppt00rppppq&&2ppr+",
"X#$>wwww0448rrww6%#1rr9O",
" XXX+++++OO+++++OXXO++O "
};
