/* XPM */
static char *_1249_f57ddae4fb2ea77b9a9ffe94eed6467edfaded5791a002779af8991e83696e71[] = {
/* columns rows colors chars-per-pixel */
"24 24 209 2 ",
"   c #BB5E25",
".  c #B86528",
"X  c #DD710E",
"o  c #DF7110",
"O  c #ED7B09",
"+  c #E97B07",
"@  c #F37A05",
"#  c #EA7B18",
"$  c #CC6723",
"%  c #D56E26",
"&  c #D97F24",
"*  c #D97326",
"=  c #C16732",
"-  c #CB703A",
";  c #DB7D3A",
":  c #C17329",
">  c #E97522",
",  c #E87C34",
"<  c #A86B4A",
"1  c #B76B42",
"2  c #AD724D",
"3  c #A67554",
"4  c #BB7C51",
"5  c #8F7365",
"6  c #AA7C62",
"7  c #D27740",
"8  c #CE7644",
"9  c #BC8B3C",
"0  c #ED8C1B",
"q  c #F4941C",
"w  c #F89619",
"e  c #DA8225",
"r  c #C88C3B",
"t  c #CD8936",
"y  c #CD9033",
"u  c #D08439",
"i  c #E98327",
"p  c #FF9D26",
"a  c #FF9E2F",
"s  c #FC9327",
"d  c #E38839",
"f  c #FF8E34",
"g  c #FF9F3C",
"h  c #F89F33",
"j  c #E8993B",
"k  c #FDA526",
"l  c #FDA52B",
"z  c #FDA82B",
"x  c #EFA03B",
"c  c #F2A436",
"v  c #FFA434",
"b  c #F3A835",
"n  c #FEA13D",
"m  c #F1A83C",
"M  c #F5A839",
"N  c #B28460",
"B  c #A29060",
"V  c #BF9968",
"C  c #B88C7F",
"Z  c #AA997F",
"A  c #BA9875",
"S  c #AFBB7D",
"D  c #B6B97C",
"F  c #CF844B",
"G  c #C99450",
"H  c #DF9D53",
"J  c #E99746",
"K  c #FF9E42",
"L  c #F69956",
"P  c #DDAB4A",
"I  c #D6AA5A",
"U  c #CEB15B",
"Y  c #CBA159",
"T  c #EBA443",
"R  c #E2AC49",
"E  c #E4A847",
"W  c #FFA141",
"Q  c #F3A746",
"!  c #E3AF5B",
"~  c #E6A754",
"^  c #C59B6A",
"/  c #C59B73",
"(  c #CD8D6C",
")  c #C5A76E",
"_  c #CCAE78",
"`  c #CAB77D",
"'  c #D7B877",
"]  c #E4A27F",
"[  c #FEBE76",
"{  c #7AB8CF",
"}  c #7FB6CB",
"|  c #7CB8D0",
" . c #7BCBCD",
".. c #6DCDD7",
"X. c #75CDD3",
"o. c #6BD4DE",
"O. c #7AD9DE",
"+. c #50D5E4",
"@. c #4ED6E4",
"#. c #6DDAE3",
"$. c #69DBE9",
"%. c #67DBE8",
"&. c #70D8E1",
"*. c #A48C80",
"=. c #A79C86",
"-. c #ACA69D",
";. c #ADB296",
":. c #B8B882",
">. c #89B3BF",
",. c #94B7B5",
"<. c #9FB1B5",
"1. c #A1B0B7",
"2. c #AFB0AE",
"3. c #C59B8F",
"4. c #C8AC8E",
"5. c #D7A48C",
"6. c #C2B98E",
"7. c #D0BC81",
"8. c #D1A091",
"9. c #C6B498",
"0. c #C5A598",
"q. c #D5B9A7",
"w. c #D5BCB7",
"e. c #E3B4A4",
"r. c #8EC29E",
"t. c #90C29D",
"y. c #8FD0BC",
"u. c #A1CDAC",
"i. c #B3C5AF",
"p. c #A1C8B7",
"a. c #B9CAB6",
"s. c #C5C182",
"d. c #DFD29E",
"f. c #C7C59C",
"g. c #E1D09C",
"h. c #FFD096",
"j. c #D7C4AC",
"k. c #D7C8B5",
"l. c #D8D9BB",
"z. c #C9C5AC",
"x. c #FFDBAC",
"c. c #E0DDBA",
"v. c #ECC5B6",
"b. c #F5E4B9",
"n. c #83B6C5",
"m. c #80B8C7",
"M. c #B8BDC0",
"N. c #84D5CF",
"B. c #91D1C1",
"V. c #85C5DE",
"C. c #8AC4D8",
"Z. c #96CEDC",
"A. c #9BCBDA",
"S. c #97D1DF",
"D. c #8CC5C9",
"F. c #A4CCC9",
"G. c #B7C6C8",
"H. c #A5CCD6",
"J. c #B0CDD3",
"K. c #BDDDDA",
"L. c #8ECFE5",
"P. c #8FCFE9",
"I. c #85C5E0",
"U. c #92CFE3",
"Y. c #8FD0E7",
"T. c #94D0E3",
"R. c #99D1E3",
"E. c #ACDFEC",
"W. c #B8DFE8",
"Q. c #ACE2EF",
"!. c #B1E0E8",
"~. c #BDF3EE",
"^. c #AEEEFD",
"/. c #AFEBF3",
"(. c #B2EDFF",
"). c #B9ECF8",
"_. c #ACF1FB",
"`. c #ACF9FF",
"'. c #ABF0F7",
"]. c #B5F2FE",
"[. c #BCF3FE",
"{. c #BEFBFF",
"}. c #B8F6F8",
"|. c #C9D8CA",
" X c #D1DDCD",
".X c #ECD8CF",
"XX c #FBD7C7",
"oX c #EDD9D0",
"OX c #DCECCF",
"+X c #D3E9D5",
"@X c #E2EDDD",
"#X c #FFE3D7",
"$X c #E8EECA",
"%X c #C4E9E3",
"&X c #D2EEEA",
"*X c #D6E8E6",
"=X c #C1F3EB",
"-X c #C3EFF4",
";X c #CBEFF9",
":X c #C4F2F3",
">X c #CDF5F3",
",X c #CDF9F7",
"<X c #C2F4FD",
"1X c #C3FBFF",
"2X c #CBF8FF",
"3X c #C2FBF3",
"4X c #D9F7FA",
"5X c #D6F3F3",
"6X c #E6EAE3",
/* pixels */
">X:X<X!.<X<X<X<XE.[.[.R.[.<X<XE.<X<X<X<XE.<X).A.",
"5XK.|.,.:X<X<X[.n.].].R.[.<X[.n.[.<X<X:X,.K.W.H.",
"OX+X;.a.>X3X{.1XZ.C.(.U.].[.C.Z.1X{.<X>Xa.;.|.J.",
"w.=._ g.+X~.}.'.{.Z.n.A.W.n.A.{._.}.:X+Xg._ =.-.",
"v.3 H ! D u.N.X.^.2X&XM.2.*X4X^...O.u.D ! H 6 8.",
"XX4 d Q I D r.y.=X&Xk.5 *.6X&X:XB.r.S U Q d 2 e.",
"XX] $ K m R U ` $Xk.N 2 6 oX@XOXs.U R Q K % 5.e.",
"8.( $ # l z b E ' x.h.F 4 x.b.7.P b z v > $ 4 *.",
"e.< d X 0 k c c E ! ~ u u H ! P m l l 0 X d < 3.",
"#X/ ; K a k k l z c o & & e h M l k l a g ; / w.",
"6Xw.- > a k k l z q 0 O O + q z k k k a # - q.G.",
"J.-.1 , n v k k k w + @ @ + q z k k k n , 1 -.H.",
";X6X5.8 i s v l k p O O O O p k k l s , 7 5.*XA.",
"<X5X.X3 . J T T T j i # # i j T T Q j . < oX;XU.",
"[.-X1.-.4.^ V V A V [ & > L / A ^ V / 4.-.1.).U.",
"E.n.H.4X&X+X+X+X6Xz.G d % = q.@X X+X+X*X4XH.} V.",
"<X[.2X). .O.O. .=Xc.r n >   j.&XD.O.O.X./.1X(.U.",
"<X<X<X`.%.@.+.o.3Xf.y v f   9.,X&.+.+.$._.[.].U.",
"<X<X<X`.$.+.+.o.3Xf.y v g : 9.,X#.@.+.$.`.{.(.T.",
"[.[.<X^.o.%.%.X.~.l.9 x n r l.~...%.$.o.^.1X(.U.",
"E.n.U.{._.`.`.^.2Xa.B Y ! G a.1X^.`.`._.{.R.{ I.",
"[.[.C.U.1X{.{.1XR.D.|.6._ g.p.Z.{.{.{.1XT.C.^.P.",
"].].^.{ ^.].].(.{ (.-XF.i.+X).} ^.].].(.{ ^.].Y.",
"T.U.L.V.U.T.U.T.I.U.T.Z.F.F.U.V.U.U.T.T.I.Y.L.L."
};
