/* XPM */
static char *_3440_44871cd06e0fc3e40703a13c77deb6dba7741a99ecd33bc38ba3ff51c6dda419[] = {
/* columns rows colors chars-per-pixel */
"24 24 177 2 ",
"   c #07080A",
".  c #0A0B0F",
"X  c #0C0D13",
"o  c #111217",
"O  c #12151C",
"+  c #18181D",
"@  c #131E25",
"#  c #1B1D24",
"$  c #1C1F28",
"%  c #1F2024",
"&  c #1E2128",
"*  c #1D2A31",
"=  c #222227",
"-  c #23252B",
";  c #28272F",
":  c #26292E",
">  c #28292E",
",  c #3B3526",
"<  c #202B31",
"1  c #2C2D33",
"2  c #2E3135",
"3  c #2B323A",
"4  c #333437",
"5  c #32343B",
"6  c #393C3E",
"7  c #48453D",
"8  c #2E3B43",
"9  c #343B44",
"0  c #3A3C44",
"q  c #3E424C",
"w  c #484540",
"e  c #4C4942",
"r  c #42464E",
"t  c #484848",
"y  c gray27",
"u  c #514C42",
"i  c #51504B",
"p  c #565044",
"a  c #464A53",
"s  c #484C56",
"d  c #4B4F5A",
"f  c #524D51",
"g  c #4E515C",
"h  c #4F5356",
"j  c #51555D",
"k  c #59575A",
"l  c #55595D",
"z  c #525357",
"x  c #665A5E",
"c  c #70575B",
"v  c #6C665A",
"b  c #796856",
"n  c #7D7358",
"m  c #475860",
"M  c #515560",
"N  c #5D5E62",
"B  c #525961",
"V  c #4E6A73",
"C  c #516C76",
"Z  c #5B6F76",
"A  c #536E79",
"S  c #5A6E79",
"D  c #537079",
"F  c #597179",
"G  c #626266",
"H  c #6F6C64",
"J  c #6A676C",
"K  c #757269",
"L  c #6B6E73",
"P  c #6F7074",
"I  c #707175",
"U  c #797978",
"Y  c #82785D",
"T  c #8F7E6C",
"R  c #897F64",
"E  c #87806E",
"W  c #8E8469",
"Q  c #888171",
"!  c #84867B",
"~  c #5F7A83",
"^  c #637E88",
"/  c #947E80",
"(  c #6B848B",
")  c #72858D",
"_  c #74888F",
"`  c #678590",
"'  c #688690",
"]  c #758B93",
"[  c #798D94",
"{  c #7B8F98",
"}  c #7E9197",
"|  c #7C929A",
" . c #8F8586",
".. c #84868A",
"X. c #88888A",
"o. c #928688",
"O. c #93928D",
"+. c #919386",
"@. c #8E8F91",
"#. c #81959C",
"$. c #8B9D9F",
"%. c #86999D",
"&. c #929493",
"*. c #999B9C",
"=. c #A68188",
"-. c #A68286",
";. c #A59C9F",
":. c #899CA3",
">. c #8599A0",
",. c #9E9FA3",
"<. c #AA9EA0",
"1. c #8EA1A8",
"2. c #94A4A8",
"3. c #95A9B2",
"4. c #A2A3A4",
"5. c #ACA1A4",
"6. c #A5A6A8",
"7. c #A3AAAD",
"8. c #A9ABAC",
"9. c #B3ADAF",
"0. c #B6B7AF",
"q. c #A6AEB4",
"w. c #ACAEB2",
"e. c #A7B0B5",
"r. c #ACB2B6",
"t. c #B1B3B3",
"y. c #BAB2B7",
"u. c #B6B7B9",
"i. c #B5B9BD",
"p. c #BABBBC",
"a. c #BCBEB3",
"s. c #C3A9AC",
"d. c #CEB8BB",
"f. c #C5C2B9",
"g. c #BBBFC2",
"h. c #B7C0C5",
"j. c #BDC2C5",
"k. c #BEC7CC",
"l. c #BFC8CD",
"z. c #BFCAD0",
"x. c #C1C3C4",
"c. c #C4CACC",
"v. c #CACCCC",
"b. c #D3D2CE",
"n. c #C4CDD2",
"m. c #CACED1",
"M. c #CBD3D4",
"N. c #CED8D9",
"B. c #C4D3DA",
"V. c #D3D5D4",
"C. c #DFD6D1",
"Z. c #D7D9D6",
"A. c #D5DCDC",
"S. c #D8D8D6",
"D. c #E1DED7",
"F. c #E5D5D6",
"G. c #F0D0D5",
"H. c #FFDFDD",
"J. c #E4E3DF",
"K. c #D6DEE0",
"L. c #DEDFE1",
"P. c #D6E0E1",
"I. c #DBE5E9",
"U. c #E1E1E3",
"Y. c #E3E8E5",
"T. c #ECEBE6",
"R. c #ECECED",
"E. c #FFEBEE",
"W. c #F3E4E7",
"Q. c #FAF5EF",
"!. c #F5F0EA",
"~. c #EAF2F5",
"^. c #F3F2F4",
"/. c #FDF6F4",
"(. c #F8F8F6",
"). c #F7FFFF",
"_. c #FEFDFE",
/* pixels */
"` A A A A A C C C V V V V V A A A A F F V V D ' ",
"D ^ | { | | #.| >.:.1.3.1.>.| _ ) ) ) ) | | ~ D ",
"C | B.z.c.M.A.A.).~.n.i.q.q.n.g.7.7.7.q.h.B.| A ",
"A { z.j.j.c.Z.Z...0 > - - < 5 G 6.6.4.4.i.c.| D ",
"A ] r.8.t.V.b.6 # q g g d d r & 5 r.j.8.g.n.{ A ",
"A ' 7.;.t.x.4 > g q s g g s r M 5 5 g.v.m.B.| A ",
"D ) 7.2.v.l = 2 - 6 ; ; ; : 0 = 4 - U U.M.L.| D ",
"D ) 7.8.@.% = G ^._.U.P I U._.^.L = l u.V.N.| V ",
"A _ 7.9.r + f _.5. ./._._._.o.<._.k O f m.k.{ A ",
"C ] k.8.1 # <.F.c T F.H H F.! c W.9.= 1 q.n.{ C ",
"A #.I...: = 5.s.=.W.Y R T Y H./ d.y.; 1 ..I.>.C ",
"S m B - 9 1 x E.G./.T b Y T /.G._.J 5 0 - M m S ",
"9 # 3 O 9 s + 5._./.Q.K K /./._.u.# g q O 3 @ q ",
"8 * j @ 9 s 1 N _._._._._._._._.J 5 g q & h * 9 ",
"Z * - # 0 s O @._._._._._._._._.4.& j q @ & < Z ",
"F ) g X 9 q z L.R._._._._._._._.^.3 a q X l ) Z ",
"C ] n.L = 0 2.^.J.!._._._._._._._.N 0 > G g.) F ",
"C [ n.g.1 X @./.J.T.(._._._._._._.*.o 4 6.7.) F ",
"A | k.c.4.  X.(.J.f.b.(._.T.C.!._.&.. 2.0.7.) D ",
"A ] q.6.i.*.y e 7 v e +.+.u v p i t *.p.4.2.) D ",
"A ) 7.4.p.M.V.O., E 7 7 7 7 E , U y.4.x.v.v.} C ",
"F ) q.6.M.L.A.Y.0.! *.Z.T.4.+.a.v.2.8.N.A.I.%.C ",
"A ~ ) ) { #.#.#.$.$.%.} #.1.1.$.[ ) ) | #.#.( C ",
"' D A A C C C C V V V C V V V V C C F A C C A ` "
};
