/* XPM */
static char *_1778_dbe32174a8d9a412b34d3770758f4b07dd8aefd605878b547967949237e2d8e5[] = {
/* columns rows colors chars-per-pixel */
"24 24 182 2 ",
"   c #000F16",
".  c #001017",
"X  c #0B121D",
"o  c #07111B",
"O  c #0D1B23",
"+  c #0D1E28",
"@  c #171925",
"#  c #1A1A23",
"$  c #1A1C28",
"%  c #0F212F",
"&  c #19252C",
"*  c #0E2837",
"=  c #0A2834",
"-  c #152633",
";  c #1C2631",
":  c #162834",
">  c #1C2B36",
",  c #04333C",
"<  c #173037",
"1  c #13313A",
"2  c #1A323B",
"3  c #212026",
"4  c #22232A",
"5  c #28262F",
"6  c #24292F",
"7  c #222B35",
"8  c #2C2C33",
"9  c #2E3A31",
"0  c #22313B",
"q  c #29323C",
"w  c #2E3639",
"e  c #303136",
"r  c #1A3644",
"t  c #263843",
"y  c #3F3F47",
"u  c #3A3F4B",
"i  c #363B45",
"p  c #19555F",
"a  c #394543",
"s  c #3E404A",
"d  c #33464D",
"f  c #334655",
"g  c #394A55",
"h  c #2F5965",
"j  c #3D5865",
"k  c #385661",
"l  c #2E727F",
"z  c #4A494F",
"x  c #40464C",
"c  c #434652",
"v  c #444955",
"b  c #494E59",
"n  c #474E5B",
"m  c #4D535E",
"M  c #46505C",
"N  c #535455",
"B  c #5B5D58",
"V  c #6E585B",
"C  c #735A5E",
"Z  c #5E605B",
"A  c #786757",
"S  c #7D6B5F",
"D  c #7E735F",
"F  c #4B5461",
"G  c #415D61",
"H  c #4B5D67",
"J  c #515561",
"K  c #4D616A",
"L  c #596C6B",
"P  c #516D79",
"I  c #5C7077",
"U  c #4C6876",
"Y  c #656760",
"T  c #6D6A63",
"R  c #68676B",
"E  c #726D67",
"W  c #656F70",
"Q  c #7D6E75",
"!  c #78777F",
"~  c #78767C",
"^  c #877A67",
"/  c #897B75",
"(  c #66807F",
")  c #918670",
"_  c #5B7E8A",
"`  c #577B89",
"'  c #627981",
"]  c #7E7E81",
"[  c #8C7F82",
"{  c #5E9099",
"}  c #6F8A8B",
"|  c #688489",
" . c #60909A",
".. c #7B969D",
"X. c #6A9CA4",
"o. c #6BA2AB",
"O. c #7CA3B5",
"+. c #7CB4BC",
"@. c #5BB4C2",
"#. c #65BFCA",
"$. c #7BB7CF",
"%. c #7AB8CF",
"&. c #6CCCD8",
"*. c #78DAE6",
"=. c #8D888F",
"-. c #878185",
";. c #988688",
":. c #8B9289",
">. c #98989A",
",. c #A8868C",
"<. c #859FA0",
"1. c #9AA4A9",
"2. c #82A6B4",
"3. c #A9ABAA",
"4. c #BFA1A9",
"5. c #BCAEB5",
"6. c #AFB2B6",
"7. c #B7B2B6",
"8. c #C2ACAF",
"9. c #82B6C5",
"0. c #80B8C7",
"q. c #89B6CA",
"w. c #92B5C4",
"e. c #9AB6C1",
"r. c #AFBEC3",
"t. c #8BC3D4",
"y. c #8FCED7",
"u. c #84C4DB",
"i. c #94CDDE",
"p. c #97C8D9",
"a. c #9BD0DE",
"s. c #ABCACF",
"d. c #A2CAD4",
"f. c #B2D5DB",
"g. c #85C5E0",
"h. c #8DCEE4",
"j. c #8FCFE9",
"k. c #92CFE2",
"l. c #8ED2E4",
"z. c #80DCE7",
"x. c #89D7EA",
"c. c #94D0E3",
"v. c #90DFEC",
"b. c #ACDCEC",
"n. c #ACD9E6",
"m. c #B6DEE5",
"M. c #BADAE7",
"N. c #ACE0EE",
"B. c #B7E2EB",
"V. c #AEEDFF",
"C. c #ADE7FD",
"Z. c #B1EBF5",
"A. c #B3EEFE",
"S. c #BBEDFB",
"D. c #BBE9F4",
"F. c #ADF2FC",
"G. c #B5F2FE",
"H. c #BDF3FD",
"J. c #BEFCFF",
"K. c #D0C5CA",
"L. c #D7CBCF",
"P. c #D8D3CE",
"I. c #DFD4D2",
"U. c #EDCFD4",
"Y. c #E4D9DC",
"T. c #D0ECF0",
"R. c #C2F4FD",
"E. c #C3FBFF",
"W. c #CBFAFF",
"Q. c #D3FCFF",
"!. c #DAFCFF",
"~. c #E2E2E1",
"^. c #ECEAE7",
"/. c #E9E9EA",
"(. c #FFE2E3",
"). c #F3EEE8",
"_. c #F7F2EE",
"`. c #FFEAF0",
"'. c #F2F1F0",
"]. c #FCF7F6",
"[. c #FFF7FB",
"{. c #FEFDFE",
/* pixels */
"R.R.H.N.R.R.R.R.b.H.A.i.S.R.H.N.R.R.R.R.N.H.H.k.",
"R.R.H.0.H.R.R.R.9.H.W.b.Q.Q.E.2.D.R.R.H.0.G.G.k.",
"H.H.t.k.E.R.H.E.n.w.w.' ..e.w.n.W.H.H.E.a.t.F.l.",
"b.9.i.J.F.G.E.B._ - : > > : = ` B.E.G.F.J.i.%.g.",
"R.S.E.F.&.*.+.1 : n F J m F M > 1 +.z.&.F.E.A.j.",
"R.R.J.G.*.#., a b u c m m c u M d , @.*.F.H.G.k.",
"R.H.J.H.c.p 2 6 e z e 3 4 8 z e 7 t l v.G.J.H.k.",
"R.H.E.R. .= & ~ [.{.^.} [ /.{.{.=.& h o.G.J.A.j.",
"N.9.i.Q.j O R [.;./ [.{.{.{.[ -.[.] O k W.k.0.g.",
"H.D.p.2.0 & 5.I.C ;.I.A T P.,.V Y.K.5 > O.p.A.j.",
"S.W.Q.P 7 5 8.4.,.(.E ^ ) A (.,.8.K.8 0 U Q.R.j.",
"d._ j : i 5 Q `.U.]./ ^ ^ ^ ].U.[.[ 8 g - j ` w.",
"K + q X u c # 7.{.{._.E T ).{.{.K.$ m v X t % g ",
"H 0 m @ u b 5 R {.{.{.{.{.{.].{.] 5 J v @ n t f ",
"M.r ; @ s v @ >.{.{.{.{.{.{.{.{.7.4 m n $ ; r q.",
"D.2.g o i u N ~./.{.{.{.{.{.{.{.[.u c g o u O.i.",
"R.R.!.I 7 x 6.).~.'.{.{.{.{.{.{.{.~ i q I Q.H.i.",
"R.R.W.f.2 % 1.'.~.^.].{.{.{.{.{.{.6.& < f.W.A.c.",
"R.R.R.W. .. 1.{.~.P.~.{.{.'.^._.{.6.. { E.H.G.i.",
"R.S.R.Z.y.o.M L Z Y N 3.3.Z T Y L K o.y.Z.E.V.c.",
"N.0.i.E.Z.R.Q.} w :.s w a a :.9 ( Q.E.Z.E.c.%.u.",
"H.H.t.k.E.E.R.Q.} L ..s.T.<.L | Q.R.H.E.c.u.G.j.",
"G.H.V.$.V.G.G.S.w.W.E.a.S.W.R.t.Z.H.A.A.%.V.G.l.",
"c.k.h.u.k.l.c.c.&.h.l.i.c.y.h.u.l.c.k.k.g.j.l.l."
};
