/* XPM */
static char *_1734_221f779ee4846d990613db4e56ca16cb333f46cadfdb2afafaf8d7fc167b9c61[] = {
/* columns rows colors chars-per-pixel */
"24 24 187 2 ",
"   c #0F0602",
".  c #110E15",
"X  c #1C1A1F",
"o  c #13111B",
"O  c #231D1F",
"+  c #091C24",
"@  c #1D1B23",
"#  c #161923",
"$  c #221D23",
"%  c #0E2532",
"&  c #1D2A35",
"*  c #162834",
"=  c #232126",
"-  c #232329",
";  c #29262C",
":  c #2A292F",
">  c #28272B",
",  c #35362E",
"<  c #2D2B33",
"1  c #222F3A",
"2  c #272A31",
"3  c #302A34",
"4  c #2F3035",
"5  c #2C3538",
"6  c #2D3B3E",
"7  c #33343B",
"8  c #3C353A",
"9  c #343B3F",
"0  c #3C3A3B",
"q  c #363635",
"w  c #413B3C",
"e  c #3B3E49",
"r  c #3A3D45",
"t  c #493E42",
"y  c #3F4242",
"u  c #3E414B",
"i  c #42424C",
"p  c #424646",
"a  c #514B4F",
"s  c #454954",
"d  c #4A4B54",
"f  c #424651",
"g  c #594F57",
"h  c #4C525D",
"j  c #535355",
"k  c #56555A",
"l  c #61585D",
"z  c #725B5E",
"x  c #63615B",
"c  c #69665F",
"v  c #786658",
"b  c #7E735D",
"n  c #4D5661",
"m  c #635D61",
"M  c #526E7C",
"N  c #56747F",
"B  c #576967",
"V  c #6D6A63",
"C  c #6B6B6B",
"Z  c #686769",
"A  c #716A64",
"S  c #766D68",
"D  c #7E706F",
"F  c #746D74",
"G  c #627271",
"H  c #757579",
"J  c #7D777D",
"K  c #7B7477",
"L  c #897B69",
"P  c #837A7D",
"I  c #837374",
"U  c #927E7D",
"Y  c #928773",
"T  c #4B7782",
"R  c #697B86",
"E  c #607B86",
"W  c #7D7D81",
"Q  c #767A83",
"!  c #857C82",
"~  c #8B7F85",
"^  c #927E80",
"/  c #53828A",
"(  c #63848D",
")  c #7C848E",
"_  c #70898E",
"`  c #678992",
"'  c #7E8C95",
"]  c #758B96",
"[  c #7D9195",
"{  c #7E909C",
"}  c #7C9EAA",
"|  c #7CA0AE",
" . c #8A8186",
".. c #84858B",
"X. c #8C848B",
"o. c #85898F",
"O. c #898889",
"+. c #958586",
"@. c #92858A",
"#. c #928A8D",
"$. c #9B8C8A",
"%. c #9B8788",
"&. c #93958C",
"*. c #848D96",
"=. c #8C8A92",
"-. c #858E99",
";. c #958A90",
":. c #86979E",
">. c #919195",
",. c #9E9193",
"<. c #9A969D",
"1. c #99999B",
"2. c #A7858B",
"3. c #A08C8E",
"4. c #A4989D",
"5. c #A89694",
"6. c #969BA4",
"7. c #A59CA3",
"8. c #96A0A9",
"9. c #97A7B6",
"0. c #94AAB7",
"q. c #83B3BF",
"w. c #8FB3BF",
"e. c #93B2BC",
"r. c #A7A6A8",
"t. c #B2A4A1",
"y. c #BBA0A5",
"u. c #A5B4BC",
"i. c #B4B4B6",
"p. c #BCB3B7",
"a. c #C3AAAE",
"s. c #C0AFB5",
"d. c #C5C1BE",
"f. c #8DBECC",
"g. c #87B6C6",
"h. c #91B2C1",
"j. c #95BED2",
"k. c #ACBEC2",
"l. c #8EC5DD",
"z. c #88C7D6",
"x. c #94C2D2",
"c. c #94CCDE",
"v. c #9DCEDF",
"b. c #A4C3D5",
"n. c #AACAD4",
"m. c #B4CBD2",
"M. c #BBCED5",
"N. c #A0D0DE",
"B. c #B2D3DB",
"V. c #BFD8DF",
"C. c #A9C4CB",
"Z. c #8ECDE5",
"A. c #91CEE1",
"S. c #ACDEEA",
"D. c #AAD5E3",
"F. c #B2E1EF",
"G. c #B4EDFA",
"H. c #BDEDF9",
"J. c #B9EAF5",
"K. c #BEF3FC",
"L. c #D2CACE",
"P. c #DAC9CE",
"I. c #CCD5DE",
"U. c #DED4D1",
"Y. c #D5D4D0",
"T. c #ECCFD4",
"R. c #E3D3D6",
"E. c #C5DEE5",
"W. c #CCE5EA",
"Q. c #C3EFFC",
"!. c #C1E2F1",
"~. c #C3F3FD",
"^. c #C8F3FF",
"/. c #CCFBFF",
"(. c #C3F5FB",
"). c #D3FBFF",
"_. c #E3E2E1",
"`. c #EDECED",
"'. c #E8E8E6",
"]. c #FFE3E2",
"[. c #F3EEEB",
"{. c #F6F1ED",
"}. c #FFEAF0",
"|. c #F3F3F4",
" X c #FCF7F5",
".X c #FEFEFE",
"XX c #FFF6FB",
/* pixels */
"r.' J.F.K.~.(.(.S.K.G.c.J.(.(.S.Q.(.(.Q.F.J.' -.",
"..) n.f.K.(.(.K.g.K./.S.).).~.q.Q.(.(.Q.f.n.' ) ",
"X.*.} N.(.K.K./.D.w.e.E ] 0.e.D./.(.K.(.N.| -...",
"X...e./.G.G./.B.N % * & 1 & % M B./.K.G./.w.o. .",
"@...B.~.z.z.` + * h n h h h n 1 + ( z.z.H.B.*...",
"X.o.C.).q./ + y h e f h h f e h i + T g.^.m.o.~ ",
"@...m.E.[ 6 5 2 4 d 4 - - 4 a 4 2 9 h :.E.M.~ ~ ",
" .<.I.8.Z O = J .X.X`. .W `..X.X=.= a K :.I.<.! ",
"~ 7.6.>.8 $ Z .X+.P .X.X.X.X~ ~ XXW @ 8 >.6.7.! ",
"~ 4.@.P - - s.P.z %.U.V c U.3.z R.L.; ; P #.7.! ",
"+.4.4.m ; ; s.y.2.].v L Y z ].2.a.L.3 3 l 4.4.~ ",
"P g 8 $ e 2 K }.T. XL L L L  XT.XX@.3 f $ w g J ",
"7 $ 7 o u f @ p..X.X{.V c [..X.XL.@ s s o 4 - 2 ",
"< 7 d # u d 2 C .X.X.X.X.X.X X.XW 2 n d # s r ; ",
"F $ < @ e s X 1..X.X.X.X.X.X.X.Xi.- h d @ 3 @ Z ",
";.! ; o i u d _.`..X.X.X.X.X.X.X.Xe t d . ; ! @.",
"X.+.,.t < t i.`._.[..X.X.X.X.X.X.XH 9 0 w ,.#.~ ",
"@.+.%.I $ X 7.`._.'.|..X.X.X.X X.Xi.- O D $.@.~ ",
"@.+.^ 5.5.  r..X'.Y._..X.X X[. X.Xd.  $.5.U +.~ ",
"@.@.@.%.t.S 0 C x x j r.i.k x c S w A t.+.%.@.~ ",
"@.~ @.4.! #.>.y q &.s 5 9 y &., 0 =.;.~ <.=.@.~ ",
"X.=.6.9.u.u.u.k.B B _ C.W.*.B M k.u.u.u.9.6.=.~ ",
"=.*.j.j.~.^.^.^.z.~./.v.H./.~.x.~.^.^.Q.j.b.-.) ",
"Q R g.l.c.c.Z.c.z.Z.Z.A.c.c.Z.j.Z.A.A.A.Z.g.R Q "
};
