/* XPM */
static char *_1220_e5b4bbd0bfe6ed66066106500968c4372d45b30cce9acc7ef2a6e2a3a9585a9d[] = {
/* columns rows colors chars-per-pixel */
"24 24 178 2 ",
"   c #57417F",
".  c #EFBC3F",
"X  c #B89E54",
"o  c #BDA247",
"O  c #C2A144",
"+  c #DBB14F",
"@  c #E4C048",
"#  c #F5CC4C",
"$  c #F1C751",
"%  c #E8C754",
"&  c #D7C86D",
"*  c #DBC36B",
"=  c #FFD765",
"-  c #E4D579",
";  c #E9C964",
":  c #594584",
">  c #574583",
",  c #60498D",
"<  c #60538B",
"1  c #6E539D",
"2  c #6D5A9A",
"3  c #70559A",
"4  c #6F7198",
"5  c #7553A3",
"6  c #7D55AD",
"7  c #7D5AAC",
"8  c #7E55B1",
"9  c #7F5CB0",
"0  c #7B69A2",
"q  c #8156B2",
"w  c #815AB2",
"e  c #8A5FB9",
"r  c #8271A7",
"t  c #8070AE",
"y  c #8D64BD",
"u  c #9075BA",
"i  c #9B74CD",
"p  c #9976C6",
"a  c #9469C5",
"s  c #7AB7CE",
"d  c #7AB8CE",
"f  c #7BB9D2",
"g  c #6BCEDA",
"h  c #72CEDB",
"j  c #6DD0DC",
"k  c #51D5E4",
"l  c #67DBE5",
"z  c #6CD9E7",
"x  c #67DBE8",
"c  c #6CDBE9",
"v  c #9EAC8B",
"b  c #A2BB9D",
"n  c #9288BA",
"m  c #8B93B8",
"M  c #9492BD",
"N  c #8FB9B8",
"B  c #97BAB6",
"V  c #B7C19E",
"C  c #B6C5B0",
"Z  c #B3CCB7",
"A  c #D4CB80",
"S  c #CBD3AE",
"D  c #D9D5BA",
"F  c #E7D9B2",
"G  c #E7E0B6",
"H  c #9E8AC9",
"J  c #A188CC",
"K  c #A09EC6",
"L  c #A491C9",
"P  c #B09AD8",
"I  c #82B7C7",
"U  c #82B8C6",
"Y  c #83B5C9",
"T  c #82B9C8",
"R  c #88B5CA",
"E  c #9CBFD2",
"W  c #A5ABCD",
"Q  c #ABAAD5",
"!  c #B3A5D6",
"~  c #AEB4DC",
"^  c #AEB8DB",
"/  c #B3B1DD",
"(  c #B9B3DF",
")  c #BEBBE8",
"_  c #8AC4D7",
"`  c #86C5DD",
"'  c #8BC4D9",
"]  c #8DCADF",
"[  c #9FCFD3",
"{  c #9EC7DB",
"}  c #95CDDD",
"|  c #9CCDDF",
" . c #9BC1D6",
".. c #A4CCCC",
"X. c #A4C9DB",
"o. c #A8CFDE",
"O. c #B7DFDE",
"+. c #BFD1DB",
"@. c #86C5E0",
"#. c #8ECDE0",
"$. c #8FCFE8",
"%. c #93CFE3",
"&. c #9FCEE1",
"*. c #8ED1E6",
"=. c #94D0E3",
"-. c #99D1E2",
";. c #93D1E8",
":. c #A7CDE2",
">. c #BFC6EC",
",. c #BAC9E8",
"<. c #ACDFEE",
"1. c #A2DBE6",
"2. c #B6D4E4",
"3. c #B9D6EA",
"4. c #BADEF6",
"5. c #ABE1EE",
"6. c #B1E3EC",
"7. c #A7E0F3",
"8. c #ADEDFF",
"9. c #A9E1F2",
"0. c #B7E7F3",
"q. c #BCE5F3",
"w. c #B7EBF5",
"e. c #BEEDF7",
"r. c #B3EDFE",
"t. c #BDEFFD",
"y. c #ABF1FC",
"u. c #ADF9FF",
"i. c #B5F0FF",
"p. c #BCF3FE",
"a. c #B0FAFF",
"s. c #BEFBFF",
"d. c #CCE1C0",
"f. c #DEE2C7",
"g. c #D4E8C5",
"h. c #C1E0DA",
"j. c #C1D7EE",
"k. c #C8D3EF",
"l. c #C1D9EB",
"z. c #C9DCEA",
"x. c #C9D9E3",
"c. c #CFC1F4",
"v. c #C8D7F6",
"b. c #C9DBF3",
"n. c #C2DAF5",
"m. c #D6DFFC",
"M. c #DDDDFD",
"N. c #C3E1EB",
"B. c #CFE6EC",
"V. c #CEEAEE",
"C. c #D9E2E7",
"Z. c #D6E5ED",
"A. c #DAE6EC",
"S. c #DAE8E8",
"D. c #D3E6E2",
"F. c #D8F3EE",
"G. c #C3E3F3",
"H. c #C2EDF6",
"J. c #C2E6F9",
"K. c #C4ECFB",
"L. c #CBECFD",
"P. c #CBE8F4",
"I. c #D5E6F4",
"U. c #D9E5F3",
"Y. c #D4E8F5",
"T. c #D4E2FC",
"R. c #D4EBFC",
"E. c #DBEDFF",
"W. c #DBE4F8",
"Q. c #C5F0F6",
"!. c #C2F4FE",
"~. c #CAF5FE",
"^. c #C4FAFF",
"/. c #CBF9FE",
"(. c #D4F1FE",
"). c #E1E8E5",
"_. c #E4E4FF",
"`. c #E9E8FF",
/* pixels */
"!.!.p.5.!.!.!.Q.O.g.A $ = & S h.Q.p.Q.!.5.p.i.=.",
"!.!.p.U p.!.!.Q.N d.& @ $ o V B Q.^.!.p.U p.p.=.",
"!.p._ } ^.p.p.^.[ b - $ # O v ../.Q.p.^.%._ y.$.",
"<.U } s.y.a.a.i.^.Z & ; + X C /.y.u.a.y.s.} d @.",
"K.p.^.y.j c c h w.F.f.F F D D.6.h c c g y.^.8.$.",
"Q.!.!.u.c k k z p.V.S.).).).Z.1.z k k l u.p.i.=.",
"!.!.!.u.c k k c i.P.Z.S.C.Z.N.5.c k k x u.s.i.=.",
"!.p.^.y.j x c g y.(.V.C.x.+.N.i.j x x g y.^.r.%.",
"5.T } s.8.u.u.y.^.q.Y.U.U.x.2.^.8.u.u.y.s.=.d @.",
"p.p._ =.^.s.s.^.| X.R.U.U.z. .| ^.s.s.s.-._ 8.$.",
"p.p.8.d 8.i.i.r.Y J.R.Z.A.z.2.R r.r.r.i.d y.y.*.",
"=.=.=.] -.-.-.&.X.P.I.U.U.I.3. .:.-.-.=.] *.;.%.",
"p.t.p.7.t.p.H.P.Y.I.I.A.A.I.Y.l.G.K.t.t.7.r.r.%.",
"!.^.p.U !.~.L.R.W.U.U._._._.M.T.k.P.~.!.T p.i.%.",
"p.p._ } !.L.R.M.M._.`._.c.P J J ( k.G./.&.` 8.$.",
"5.T } !.K.E./ 0 r n ! L u p i p 0 M b.G.^.%.f @.",
"!.p.^.e.b.>.2 5 5 5 5 5 w y y y 7 : W 2.0.^.r.=.",
"!.!.!.K.(.M 1 8 a a 8 8 6 6 6 6 7 , 4 z.K.!.i.*.",
"!.!.!.e.L.^ 2 w 8 8 8 8 6 q q 6 w : m 3.e.s.i.=.",
"!.p.^.0.:.T.t 5 6 8 8 8 e q 6 7 3 < ,.X.0.^.r.%.",
"5.s } ~.0.R.) 2 7 w 8 a i 8 w 7   K n.q.^.=.s ` ",
"p.t._ %./.~.E.Q 2 1 1 1 1 1 1 : n v.J./.-.` 8.$.",
"p.p.r.s r.t.J.R.>.~ / / / / W ^ n.q.t.r.d 8.i.*.",
"%.=.$.@.%.%.&.:.b.T.m.m.m.T.T.l.:.&.%.=.` $.*.*."
};
