/* XPM */
static char *_241_d4bf761f433ab0d6a1ef875a71f6e383f39ec8050b5ba759181e5294434ce9e3[] = {
/* columns rows colors chars-per-pixel */
"24 24 158 2 ",
"   c #767678",
".  c #7EB6CD",
"X  c #7EB5D4",
"o  c #6DCFDC",
"O  c #70CEDA",
"+  c #6DD0DC",
"@  c #4ED6E5",
"#  c #50D6E2",
"$  c #6BDAE7",
"%  c #67DBE8",
"&  c #6CDDEA",
"*  c #909497",
"=  c #979799",
"-  c #AAA8AB",
";  c #87B6C6",
":  c #8BB5C3",
">  c #81B9C7",
",  c #86B7C8",
"<  c #81B9C8",
"1  c #8CB9CC",
"2  c #9AB1DB",
"3  c #BCB4DB",
"4  c #9EAFE7",
"5  c #9EAEE9",
"6  c #98BEE5",
"7  c #97BEE9",
"8  c #B6AAE5",
"9  c #B9AFE3",
"0  c #B6AAEC",
"q  c #B9AEEA",
"w  c #A8BBE6",
"e  c #A2B6EB",
"r  c #AAB7EB",
"t  c #A3B9EE",
"y  c #AEBBEF",
"u  c #BDB3E5",
"i  c #B4B2EA",
"p  c #BEB1ED",
"a  c #B1BCEE",
"s  c #AFADF8",
"d  c #B4AAF4",
"f  c #B8AAF5",
"g  c #B7A7FF",
"h  c #BAA7FE",
"j  c #B5AAFA",
"k  c #B8A8FE",
"l  c #BFB0F3",
"z  c #B1BEF3",
"x  c #C0B6D9",
"c  c #87C4D7",
"v  c #8BC4D7",
"b  c #99C1D2",
"n  c #96C0D9",
"m  c #95CCDD",
"M  c #9BCBDF",
"N  c #96D1DF",
"B  c #B1C3CD",
"V  c #A3C7D5",
"C  c #AAC7D5",
"Z  c #ABC9D3",
"A  c #A0C7D8",
"S  c #A4CADD",
"D  c #ACCEDA",
"F  c #BBCED5",
"G  c #85C5E0",
"H  c #8DCFE5",
"J  c #8ECFE9",
"K  c #97C0E0",
"L  c #94CFE3",
"P  c #9DC7ED",
"I  c #94CEE8",
"U  c #9CC8EB",
"Y  c #8FD0E4",
"T  c #8ED0E9",
"R  c #93D0E3",
"E  c #9AD1E1",
"W  c #94D2E9",
"Q  c #A2C7E1",
"!  c #A1C7EE",
"~  c #A2C8ED",
"^  c #A5C8F0",
"/  c #AFC0F8",
"(  c #ADDFF0",
")  c #ACE1EF",
"_  c #BDE2E8",
"`  c #AAE0F0",
"'  c #AEEFF9",
"]  c #BFE5F2",
"[  c #B5E9F4",
"{  c #BFE6FF",
"}  c #B4ECFF",
"|  c #BCEDFE",
" . c #ACF2FC",
".. c #AEF9FF",
"X. c #B6F2FF",
"o. c #BCF2FE",
"O. c #BEFCFF",
"+. c #C1C2C6",
"@. c #CBCBCB",
"#. c #C5C1D0",
"$. c #CFCCD2",
"%. c #CFD4D7",
"&. c #CBD5DB",
"*. c #C4D9DF",
"=. c #C9D8DF",
"-. c #D3D2D4",
";. c #D5D3DB",
":. c #D9D6DF",
">. c #D4D9DF",
",. c #CFC8EA",
"<. c #D4CEE5",
"1. c #D0CAEC",
"2. c #C4DCE2",
"3. c #C5DFEE",
"4. c #D5D0E6",
"5. c #DED7E9",
"6. c #CEC3FB",
"7. c #D1C9F2",
"8. c #C7DDF5",
"9. c #DBDBFF",
"0. c #E0DFE7",
"q. c #E2D5FF",
"w. c #E1D8FF",
"e. c #E8DDFF",
"r. c #CBE3EF",
"t. c #C0E5F5",
"y. c #CCE7F2",
"u. c #CDEEF7",
"i. c #CFE6FF",
"p. c #C3EBFD",
"a. c #CCEEFC",
"s. c #D5EDF5",
"d. c #DAECF4",
"f. c #C3F4FD",
"g. c #CCF2FD",
"h. c #C4FAFF",
"j. c #C9F8FF",
"k. c #D1F0F5",
"l. c #DEF0F7",
"z. c #D1F2FE",
"x. c #DDF2FC",
"c. c #EDECED",
"v. c #F1EDEE",
"b. c #E8E4F5",
"n. c #E6EFF4",
"m. c #ECEEF2",
"M. c #EBE5FD",
"N. c #ECEBFC",
"B. c #F1EDF2",
"V. c #F1ECFD",
"C. c #E3F2F7",
"Z. c #ECF0F5",
"A. c #E5F3FB",
"S. c #EDF3FA",
"D. c #F2F2F7",
"F. c #F3F2FE",
"G. c #F0F9FF",
"H. c #FAFAFC",
/* pixels */
"f.f.o.` f.f.f.f.) o.| N | f.f.( f.f.f.f.` o.X.L ",
"f.f.o.< o.f.f.o.< o.o.E p.h.| ; f.g.p.f., | | I ",
"o.o.v m h.f.O.h.N v } M p.a.b A g.u.u.g.Q K { U ",
") . m O.' .... .O.m 1 t.z.y.3.x.x.x.l.x.i.2 7 r ",
"O.o.h. .O $ & +  .h.z.A.G.Z.S.N.Z.Z.D.F.9.i s j ",
"f.f.o...& # # % ..f.s.C.+.c.c.D.v.v.$.5.e.8 f k ",
"f.f.f...& # @ % ..f.l.C.* c.@.  * H.- #.M.8 k k ",
"f.o.h. .+ $ $ O ' g.k.Z.Z.Z.c.$.b.V.F.V.9.0 f g ",
") < m O.' X.X.[ j.Z B S.c.m.B.F.V.M.M.V.q.q f k ",
"o.X.c R h._ 2.2.*.F &.>.;.>.4.x 3 u u p l f k k ",
"X.X.} . ] *.&.%.-.%.;.-.-.;.,.9 0 f d f h f k k ",
"E R W m D *.-.-.-.-.-.-.-.;.7.q f g g k k k g k ",
"o.o.} ) y.*.-.-.-.-.-.-.-.<.7.8 f k k k k k k g ",
"f.j.f.: y.&.%.-.-.-.;.;.;.<.7.q f k k k g g k k ",
"s.z.A C d.;.-.;.-.:.<.1.<.7.6.f f k k g k k g k ",
"l.l.s.A.n.m.v.c.B.b.3 9 q q f f k k k k k g k k ",
"Z.Z.Z.m.m.Z.v.v.D.M.u 0 f f f k k k k g k k k g ",
"v.v.B.v.v.c.c.c.B.M.q j k g k k k k k k k g h k ",
"v.v.v.v.v.c.v.v.B.M.q h g h h k k g g g k k k k ",
"Z.Z.Z.Z.Z.Z.m.Z.N.N.i d d d j j j d d d d s j j ",
"d.s.y.x.l.l.C.l.x.t.w r y r 5 z z z a z / 5 t t ",
"g.a.1 S g.g.u.g.S n p.! p.a.7 ! a.a.a.z.^ K { ! ",
"| o.} . | | o.} . } } I } | } X { } } | X ' } I ",
"N L I G H R R R G T T Y R L J c I L L I G J J H "
};
