/* XPM */
static char *_870_269a0c8d3362681a9008a446c3762d476e6a3e46149d52b3ad56c721af01764d[] = {
/* columns rows colors chars-per-pixel */
"24 24 174 2 ",
"   c #FBB54F",
".  c #EFB65D",
"X  c #EAB85F",
"o  c #F6B654",
"O  c #FBB552",
"+  c #F6B853",
"@  c #F9BB55",
"#  c #F4B55A",
"$  c #F8B658",
"%  c #DBBD7D",
"&  c #EDB663",
"*  c #EEB860",
"=  c #E5BB6A",
"-  c #E9B96A",
";  c #F3BC61",
":  c #E2BA72",
">  c #FCC55E",
",  c #D1C078",
"<  c #FEC563",
"1  c #FECD66",
"2  c #FBCE6B",
"3  c #F4C66B",
"4  c #F6D06F",
"5  c #FDD26C",
"6  c #E7C376",
"7  c #F5CE72",
"8  c #F1CE7C",
"9  c #F9CB73",
"0  c #EED076",
"q  c #EBD27C",
"w  c #F5D175",
"e  c #FED774",
"r  c #FFD974",
"t  c #F3D07E",
"y  c #FBD978",
"u  c #79B7CD",
"i  c #7AB8CF",
"p  c #7AB9D0",
"a  c #57D2D9",
"s  c #59D2DA",
"d  c #6ACEC6",
"f  c #64CECB",
"g  c #7ECBC2",
"h  c #70CDC3",
"j  c #7DD7CD",
"k  c #7BD8CE",
"l  c #69CFDC",
"z  c #6CD0DD",
"x  c #6FD9DF",
"c  c #79D8D6",
"v  c #52D4E1",
"b  c #6BDBE6",
"n  c #67DBE8",
"m  c #6ADBE9",
"M  c #70DBE1",
"N  c #B9B695",
"B  c #D7BF83",
"V  c #B8C09B",
"C  c #9FC9A5",
"Z  c #9ACAAB",
"A  c #9BD3AE",
"S  c #80CCBF",
"D  c #99D3B3",
"F  c #A8C1AB",
"G  c #AEC4B7",
"H  c #AEC9BA",
"J  c #BED2B7",
"K  c #CEC385",
"L  c #CDC18F",
"P  c #DDCA8F",
"I  c #DBC28C",
"U  c #DAD88E",
"Y  c #C9C796",
"T  c #C4C993",
"R  c #D2C291",
"E  c #CFD89F",
"W  c #D6D698",
"Q  c #D5DB9C",
"!  c #DED39D",
"~  c #E3C689",
"^  c #E7D581",
"/  c #ECD283",
"(  c #E4D58F",
")  c #F5DA81",
"_  c #F1DF8D",
"`  c #E3CC96",
"'  c #E3D393",
"]  c #E9D890",
"[  c #E4DA9C",
"{  c #E9DB9C",
"}  c #CCCDA3",
"|  c #C9DBA4",
" . c #D8D3A3",
".. c #CFD7B2",
"X. c #CADAB6",
"o. c #D1DDBD",
"O. c #D4D8B3",
"+. c #D8E4A6",
"@. c #D0E5AD",
"#. c #D8E7B0",
"$. c #DEE5BD",
"%. c #D6EEBA",
"&. c #E5E1A4",
"*. c #E3E0AD",
"=. c #E0E0BC",
"-. c #82B7C7",
";. c #80B8C7",
":. c #82B9C8",
">. c #85CBC1",
",. c #92C2CD",
"<. c #88D6C6",
"1. c #83D3C9",
"2. c #83D8C5",
"3. c #87C4D7",
"4. c #8AC3D7",
"5. c #85C4DC",
"6. c #9CCFD4",
"7. c #94CDDE",
"8. c #96D0DE",
"9. c #9BD1DD",
"0. c #A5CCC7",
"q. c #A9CDC4",
"w. c #B1CEC3",
"e. c #B7D4C2",
"r. c #BFEBD2",
"t. c #85C5E0",
"y. c #8ECDE3",
"u. c #8ECFE9",
"i. c #93CFE3",
"p. c #91CFE8",
"a. c #8FD0E5",
"s. c #8ED0E9",
"d. c #94D1E3",
"f. c #98D2E0",
"g. c #90D1E9",
"h. c #AADFEE",
"j. c #ACE1EF",
"k. c #BCE9EC",
"l. c #A9E1F1",
"z. c #ACEDFF",
"x. c #B3EFF3",
"c. c #B2EEFF",
"v. c #ABF1FC",
"b. c #AEF9FF",
"n. c #BAF4F4",
"m. c #B5F1FF",
"M. c #BCF3FE",
"N. c #B2F9FD",
"B. c #BDFBFE",
"V. c #CFDFC2",
"C. c #C8EACF",
"Z. c #CCE6C3",
"A. c #D7E2C0",
"S. c #D3E6CA",
"D. c #D9E7CB",
"F. c #C9E5D6",
"G. c #CDECDF",
"H. c #D0ECDE",
"J. c #D3E7D2",
"K. c #CDF2D9",
"L. c #DAF1DF",
"P. c #CEEFE5",
"I. c #CAEEEB",
"U. c #D5EFE6",
"Y. c #CDF4EC",
"T. c #C6F3E5",
"R. c #D5F2E2",
"E. c #D3F4E9",
"W. c #C3EFF0",
"Q. c #CCF4F1",
"!. c #C2F4FD",
"~. c #C3FBFF",
"^. c #CEFAF8",
"/. c #C7F4F8",
/* pixels */
"!.!.M.j.!.!.!.!.j.M.c.9.M.!.M.l.!.!./.!.h.M.c.d.",
"!.!.M.;.M.!.!.!.:.M.M.f.M.!.M.:.M.!.!.M.:.M.M.i.",
"M.M.4.7.~.M.!.~.i.4.c.i.M.M.4.7.~.!.~.~.7.4.c.u.",
"j.u 7.B.v.N.b.v.B.i.u y.l.u 7.~.v.b.b.v.B.i.i 5.",
"!.M.~.v.z m m z v.~.c.g.M.M./.v.z m m z v.~.z.a.",
"Q.Y.W.N.m v v x n.Q.I.0.P.E.E.n.b v v n b.!.n.6.",
"S.J.E.B.M v s c K.=. .B [ *.$.K.k a a n N.Y.G.J ",
"$...o.C.>.k <.Z Y % : 6 8 / ' | D 2.k g r.D.C.J ",
"o.} ' ( | #.W % = * 3 2 2 w 7 q U +.%.@.&.&.X.F ",
"L...6 7 8 8 7 < < 1 5 5 5 5 5 e y ) _ _ q ] A.q.",
"W.S.% * ; $ < < 1 5 r e r e r r e e w w w W F.6.",
"9.w.R - # + O O o > 5 5 5 5 5 5 5 1 1 w )  .0.d.",
"M.I.=.B &   O O   o 1 1 1 1 1 5 1 1 5 w [ D.k.d.",
"!./.U.N : # O O     > 1 1 1 1 1 1 2 2 / N P.M.d.",
"!.!.,.w.` - $ O     @ 1 1 1 1 1 1 5 q &.q.,.c.s.",
"h.-.i.^.V.B & # @ @ o < 5 2 5 5 4 q W Z.^.d.p 5.",
"!.c.!.x.>.Z K - . # . ; 9 9 w 0 q Q D g x.~.m.a.",
"!./.!.N.x h F T P ~ I K ' { {  .| D d x b.B.N.d.",
"/.!.!.m.b a f 2.T.L.G.w.H.L.R.T.k f a b b.B.m.i.",
"!.!.!.z.z n n z v.~.m.8.M.!.~.v.l n n l v.~.c.i.",
"j.u 7.B.v.b.b.v.B.f.i 7.j.u 8.B.v.N.b.v.B.i.p 5.",
"M.M.4.i.~.B.M.B.d.5.z.g.m.m.3.d.~.M.B.~.i.5.z.p.",
"M.M.c.p z.m.m.m.p z.b.a.c.m.z.i c.m.c.c.i z.c.a.",
"7.i.p.5.i.i.d.a.t.u.g.a.8.d.u.t.i.d.i.d.t.u.s.u."
};
