/* XPM */
static char *_2863_bfe8d6fa150f0860575de397dc3906677d80c48f5e784f0ce0bc368a39e27351[] = {
/* columns rows colors chars-per-pixel */
"24 24 177 2 ",
"   c #3C603A",
".  c #6C553E",
"X  c #41663D",
"o  c #3A6C4C",
"O  c #39714E",
"+  c #3C6E51",
"@  c #585947",
"#  c #5F5D50",
"$  c #6F4F40",
"%  c #6A5C4B",
"&  c #6D5844",
"*  c #4D6E4C",
"=  c #586448",
"-  c #43784E",
";  c #577E4F",
":  c #437556",
">  c #447A56",
",  c #4E7E59",
"<  c #447859",
"1  c #547E54",
"2  c #6B6F4C",
"3  c #6D714C",
"4  c #6B665C",
"5  c #776358",
"6  c #77695C",
"7  c #4C8F5A",
"8  c #57835A",
"9  c #588358",
"0  c #4C935D",
"q  c #5A8260",
"w  c #5F8964",
"e  c #558868",
"r  c #4C9664",
"t  c #4E9961",
"y  c #529663",
"u  c #559865",
"i  c #5B9F6A",
"p  c #668B62",
"a  c #728A6A",
"s  c #6A9061",
"d  c #719565",
"f  c #749576",
"g  c #5BA66E",
"h  c #4DA57F",
"j  c #5EA07C",
"k  c #68A77B",
"l  c #7EA07F",
"z  c #69B47B",
"x  c #6BB97F",
"c  c #559F84",
"v  c #4EA582",
"b  c #5BA68E",
"n  c #5EBF9E",
"m  c #68A887",
"M  c #6EBC84",
"N  c #67B48D",
"B  c #6EBB8D",
"V  c #65B987",
"C  c #72B780",
"Z  c #74BC84",
"A  c #78BD87",
"S  c #74BE8A",
"D  c #7ABD8A",
"F  c #63AE9A",
"G  c #70A794",
"H  c #6CBB92",
"J  c #6FB495",
"K  c #72BE92",
"L  c #78B398",
"P  c #75B9A7",
"I  c #78BCA7",
"U  c #7ABEAA",
"Y  c #74B9B7",
"T  c #68B5A3",
"R  c #5FC09D",
"E  c #73C286",
"W  c #75C28A",
"Q  c #79C38B",
"!  c #75C294",
"~  c #65C4A9",
"^  c #6DC4AE",
"/  c #7AC1A8",
"(  c #67C9B9",
")  c #7AC2B4",
"_  c #7CCDB7",
"`  c #7DD1B9",
"'  c #7AB8CE",
"]  c #7BB9D0",
"[  c #5ED5CF",
"{  c #4ED2DF",
"}  c #60CEC1",
"|  c #60D5CF",
" . c #6BCFDA",
".. c #6ED0DB",
"X. c #74DCD4",
"o. c #73DCDC",
"O. c #78DCDA",
"+. c #4FD3E1",
"@. c #52D6E4",
"#. c #66DCE2",
"$. c #6ADCE4",
"%. c #6BDBE9",
"&. c #73E3E6",
"*. c #71E4E9",
"=. c #86BC8C",
"-. c #8BB889",
";. c #9BB493",
":. c #95B99A",
">. c #83B7A0",
",. c #85BFB1",
"<. c #A8B4A7",
"1. c #B0B5AF",
"2. c #B7BCB8",
"3. c #84C08D",
"4. c #85C8B7",
"5. c #88C7B8",
"6. c #84D3B3",
"7. c #88D3BA",
"8. c #82B8C5",
"9. c #81B9C8",
"0. c #82B7C5",
"q. c #A2BEC1",
"w. c #8CCBCF",
"e. c #93CDC5",
"r. c #8ED1C0",
"t. c #99D6C7",
"y. c #93D4C6",
"u. c #8AC4D6",
"i. c #85C5DD",
"p. c #88C4D7",
"a. c #94CEDD",
"s. c #9ACFDF",
"d. c #95D5DD",
"f. c #9AD1DD",
"g. c #97D2D6",
"h. c #A5C9C6",
"j. c #B4CECF",
"k. c #A9D8D0",
"l. c #BCD7D7",
"z. c #9FE4CF",
"x. c #9FE4D1",
"c. c #85C5E0",
"v. c #8FCFE8",
"b. c #8DCEE2",
"n. c #93CFE3",
"m. c #91CFE8",
"M. c #8ED0E9",
"N. c #93D1E4",
"B. c #ABDFED",
"V. c #9EF5E4",
"C. c #ABE0EE",
"Z. c #ACE4E1",
"A. c #B7EDEF",
"S. c #A8FFEF",
"D. c #A1F8E8",
"F. c #B3F6EC",
"G. c #BEF6ED",
"H. c #AEEDFF",
"J. c #B2EEFE",
"K. c #A7F0F9",
"L. c #ABF2FC",
"P. c #AFFCFF",
"I. c #AAFFF5",
"U. c #B6F7F4",
"Y. c #BAF5F4",
"T. c #B5F1FE",
"R. c #BCF3FE",
"E. c #B3FBFD",
"W. c #BDFBFD",
"Q. c #B7F8F2",
"!. c #C5CFC6",
"~. c #C8D9C6",
"^. c #C4E1DF",
"/. c #C3FBF5",
"(. c #C2F4FD",
"). c #C4FCFE",
"_. c #CAFBFF",
/* pixels */
"(.(.(.C.R./././.B./.>.e e >.G.k./././.(.B.R.J.N.",
"(.(.R.0.R.Y.e.t.,.m : , , : G ,.t.e.A.R.9.R.R.n.",
"R.R.u.a.).Q.) J m : 9 ; ; 8 < m J I Y.).a.p.J.m.",
"B.0.a.W.L.P.D.7.k - -.d s -.- j 6.D.E.L.).N.' i.",
"(.R.).H. .$.#.O.b : q *   p < v X.$.$. .L.).J.n.",
"(.(.(.P.$.@.+.&.T < q = * q < F &.{ @.%.P.R.J.n.",
"(.(.(.E.%.@.+.*.` + f ;.;.-.+ U *.{ @.%.L.).T.N.",
"(.(.(.H. .$.#.o.b O , p 1 8 o c X.#.#. .K.).T.N.",
"C.9.N.W.L.P.I.` N y i i i g y m _ S.P.L.W.N.] c.",
"R.R.u.d.Q.z.7.H K Q E E E E Q ! S 6.z.F.d.p.L.M.",
"R.T.L.Y / B B W Q A W E E W W W E B B / Y L.L.M.",
"f.d.d.) H E Q W Z C Z Z Z Z x Z E Q W H ) d.N.b.",
"R.Y.Y.5.H E g Z u y 7 z z 0 7 y Z g Z S 4.E.H.n.",
"(.).W.U S M 0 Z A x x E A Z x Z Q 0 x K I Y.Y.b.",
"R.Y.w.P ! Z t A A A E E E E A Q D t M K P w.H.n.",
"B.' g.e.W Z y E E E E E E E Z Z Z r M K 7.d.' i.",
"(.Y.).t.H V r S E E W V z E W E W r V N 7.).L.n.",
"(.(.(.F.^ R v H E Z W t 0 Q Z W H h n ^ F.R.T.N.",
"(.(.(.E.o.[ } ~ ! S S M E W Z ! ~ ( [ o.E.W.T.n.",
"(.R.).H. .$.o.( k =.=.S Q 3.-.k ^ O.$. .K.).J.N.",
"C.9.a.W.H.L.W.k.= 3 a :.:.a 3 = h.W.L.K.W.n.] i.",
"R.R.u.n.W.R.).^.% . @ <.~.@ . & l._.R.).N.i.J.m.",
"J.W.H.' J.J.R.l.% . # <.!.4 $ % j.).J.T.] H.H.m.",
"n.n.v.i.n.a.s.h.5 . 4 <.2.4 $ 5 h.f.n.n.c.M.N.b."
};
