/* XPM */
static char *_9733_6f416b51cf6cf8d236f4aa31b9a7f71c9a9ad2c4a56ff68868cade40f8820f7c[] = {
/* columns rows colors chars-per-pixel */
"24 24 186 2 ",
"   c #6C588C",
".  c #71568D",
"X  c #7F4B9D",
"o  c #665790",
"O  c #6F5791",
"+  c #6C5995",
"@  c #6F5999",
"#  c #745393",
"$  c #785593",
"%  c #745995",
"&  c #7D5997",
"*  c #74599C",
"=  c #7D599B",
"-  c #5F6694",
";  c #626796",
":  c #686697",
">  c #666898",
",  c #6A6899",
"<  c #756592",
"1  c #707497",
"2  c #7F6DAB",
"3  c #687EAF",
"4  c #6D74A5",
"5  c #7875A8",
"6  c #687EB0",
"7  c #7F7AB0",
"8  c #797EB8",
"9  c #804B9D",
"0  c #82569A",
"q  c #81599A",
"w  c #846D9B",
"e  c #885CA7",
"r  c #8C57A9",
"t  c #875BA6",
"y  c #925DAD",
"u  c #806EAC",
"i  c #9D6FAF",
"p  c #8578A6",
"a  c #837AAA",
"s  c #8573A8",
"d  c #9F71AF",
"f  c #8D6DB2",
"g  c #9662B2",
"h  c #9A62B5",
"j  c #9F6CB7",
"k  c #9B66B9",
"l  c #946EB9",
"z  c #9C6DBC",
"x  c #946BB7",
"c  c #8F75B7",
"v  c #9273B7",
"b  c #9179B5",
"n  c #9B7AB5",
"m  c #9472BC",
"M  c #9C72BD",
"N  c #9279BA",
"B  c #A16CBE",
"V  c #A866B7",
"C  c #A173BE",
"Z  c #A37BB7",
"A  c #9F6EC0",
"S  c #9D71C1",
"D  c #A56DC2",
"F  c #A96CC3",
"G  c #A96EC8",
"H  c #A271C2",
"J  c #A973C6",
"K  c #AB71C8",
"L  c #BC7CC6",
"P  c #7D80A9",
"I  c #768BB7",
"U  c #7A90C2",
"Y  c #7EA5C7",
"T  c #7AB8CF",
"R  c #6CCEDB",
"E  c #6CCAE5",
"W  c #6FCDE9",
"Q  c #69D7E8",
"!  c #6BDAE8",
"~  c #6AD5E5",
"^  c #8F8EB8",
"/  c #8C87B9",
"(  c #9387B7",
")  c #9B89B9",
"_  c #938DB8",
"`  c #8397BC",
"'  c #8B90BA",
"]  c #9283C1",
"[  c #8794C8",
"{  c #8A96C7",
"}  c #949ACD",
"|  c #9A9DCF",
" . c #9492C8",
".. c #969CD4",
"X. c #9E9BDA",
"o. c #9D9DD1",
"O. c #A782C7",
"+. c #AB84C4",
"@. c #BD80C6",
"#. c #BE86CB",
"$. c #B488C5",
"%. c #A699C7",
"&. c #AF9DCF",
"*. c #8BAAC6",
"=. c #82B9C6",
"-. c #87B6C8",
";. c #81B6C4",
":. c #91B5CF",
">. c #9DA2D1",
",. c #93AFD6",
"<. c #94B5DB",
"1. c #94BFDF",
"2. c #9BB8D6",
"3. c #A2A5D2",
"4. c #A6A6D8",
"5. c #A6AAD9",
"6. c #A9ADD3",
"7. c #ADB2D6",
"8. c #A9B1DF",
"9. c #95BDE0",
"0. c #ACB9E4",
"q. c #ABBBE5",
"w. c #B7BDEA",
"e. c #BCB8EA",
"r. c #CF9DDA",
"t. c #D09CDA",
"y. c #C6A8E8",
"u. c #C8ABEB",
"i. c #C5B6EB",
"p. c #E7ABEE",
"a. c #87C3D8",
"s. c #95CDDC",
"d. c #93C3DB",
"f. c #97D1DD",
"g. c #85C5E0",
"h. c #8EC5E2",
"j. c #8ECFE4",
"k. c #82CCEA",
"l. c #8FCFE9",
"z. c #92CFE3",
"x. c #93CEE9",
"c. c #98CEE8",
"v. c #99CDE5",
"b. c #8FD0E6",
"n. c #81D2E9",
"m. c #8ED0EA",
"M. c #95D0E3",
"N. c #99D1E8",
"B. c #8ECDF3",
"V. c #A5CCE6",
"C. c #A4CCEE",
"Z. c #ABCBEB",
"A. c #A2C3E4",
"S. c #A6D0E8",
"D. c #ABDDEE",
"F. c #BED4EB",
"G. c #B4CCF0",
"H. c #A7D6F0",
"J. c #B7DEFE",
"K. c #ABE0EE",
"L. c #A7EFFB",
"P. c #AEEDFF",
"I. c #B4EDFE",
"U. c #BBEEFE",
"Y. c #B8E1FD",
"T. c #ACF3FC",
"R. c #B5F2FF",
"E. c #BCF3FE",
"W. c #BEFCFF",
"Q. c #C8CAFA",
"!. c #D9C4FC",
"~. c #C7DBF3",
"^. c #DFD7FF",
"/. c #E1D9FF",
"(. c #C5E4FE",
"). c #CCE6FE",
"_. c #C5EBFF",
"`. c #CBECFF",
"'. c #D3E3FF",
"]. c #D3EDFF",
"[. c #C3F3FE",
"{. c #CBF5FF",
"}. c #C3FBFF",
"|. c #CAF9FF",
" X c #D4F6FF",
".X c #DAF2FF",
/* pixels */
"[.E.E.D._.{.{.[.D.E.R.f.E.[.E.K.U.{.{.[.D.E.R.M.",
"[.}.E.-.(.~.~.].:._._.V.`. X_.:.].~.F.).-.R.R.M.",
"E.E.a.V.7.< w ) 3.q.Q.4.e.Q.0.5.) w < 6.Z.a.R.m.",
"D.;.s. X_ n r.d b ] c c v c ] N i t.Z (  Xs.T a.",
"[.U.[.).p +.p.L j A A D D H S B L p.$.p (.}.P.b.",
"[.[.[.{.^ p #.V V D D D D D F B V #.n / {.[.R.z.",
"[.[.[.[.2.4 M F G F D D D D F F F A 4 ,.[.E.R.z.",
"[.E.}.I.d.{ m F D D D D F D D D F z [ 1.I.}.P.x.",
"K.=.f.}._.>.l F D B D J J H B D G x | (.[.M.T g.",
"E.U.d.V. X4.x J X g B r r B g 9 K l 3. XV.d.I.l.",
"R.{.G.` `.8.x G k z D 9 X z B h G l 8.].` Z.[.x.",
"V.2., , 8.w.N B D D D J J D D J A m w.q., ; <.C.",
"'.P O % 5 /.i.x z D D D D D D A f u./.a % @ 5 Z.",
"i.  & q # s !.u.H D F F D D D D y.!.s % q * + o.",
"&.. q q q # & O.C k D D D C k M O.= # q q = % ] ",
"%.  . $ & = = # e y y y y r g e # = q = # O o / ",
"7.1 _ w   o o * z z k h h h z z * @ @ + 5 ^ 1 { ",
").)..X'.I I U 8 m D D D F D D m 8 U 3 I '..X(.A.",
"{.{.[.E.n.E W B.X.m G F F H z X.B.W E k.R.E.U.v.",
"E.E.}.L.R Q Q k...f m m l m f ..k.~ ! R T.}.I.x.",
"K.=.s.W.T.T.W.Y.7 u  .} >. .2 5 Y.R.T.T.W.M.T g.",
"E.R.a.M.}.E.|.*.- } ).C.`.]...- *.|.E.}.M.a.I.l.",
"R.E.P.T I.I.R.D.Y J.I.c.Y.[.J.Y S.R.I.R.T P.T.l.",
"M.M.l.a.M.z.z.N.h.x.x.j.M.M.x.h.N.v.z.j.g.m.M.b."
};
