/* XPM */
static char *_2435_61e0959703ce47fe39d76958fecdd1f1560280fa6f773d2d10098b71ea041dbf[] = {
/* columns rows colors chars-per-pixel */
"24 24 99 2 ",
"   c #CC4C36",
".  c #CC4D37",
"X  c #CD4E37",
"o  c #CD4F38",
"O  c #DB6931",
"+  c #DB6A31",
"@  c #DB6A32",
"#  c #DB6B32",
"$  c #DC6B32",
"%  c #DC6C33",
"&  c #E0783E",
"*  c #E0793E",
"=  c #D35F42",
"-  c #D96F4C",
";  c #D96F4D",
":  c #D9704D",
">  c #DB7550",
",  c #DC7651",
"<  c #DF7E56",
"1  c #EC8F2E",
"2  c #EC902E",
"3  c #EC902F",
"4  c #EC912F",
"5  c #EC9130",
"6  c #EE973B",
"7  c #EE983B",
"8  c #EE993B",
"9  c #EE983C",
"0  c #DF8057",
"q  c #E48448",
"w  c #E58449",
"e  c #E48549",
"r  c #E5854A",
"t  c #E6894C",
"y  c #E6884D",
"u  c #E6894D",
"i  c #E68A4D",
"p  c #E6894E",
"a  c #E7894E",
"s  c #E78A4E",
"d  c #E78E51",
"f  c #E88E52",
"g  c #E1845A",
"h  c #E48C5F",
"j  c #E89053",
"k  c #E89154",
"l  c #E89254",
"z  c #E99254",
"x  c #F0A046",
"c  c #F0A047",
"v  c #F1A34A",
"b  c #F1A34B",
"n  c #F2A751",
"m  c #F2A752",
"M  c #F2A852",
"N  c #F4AE5B",
"B  c #F5B05F",
"V  c #E69162",
"C  c #E79464",
"Z  c #E89665",
"A  c #E89766",
"S  c #EEA263",
"D  c #EEA363",
"F  c #EEA364",
"G  c #EFA364",
"H  c #EFA464",
"J  c #F5B263",
"K  c #F5B876",
"L  c #F6B877",
"P  c #F4B77B",
"I  c #F6BA78",
"U  c #F6BA79",
"Y  c #F7BE7F",
"T  c #F7BF7F",
"R  c #F8C17E",
"E  c #F8C17F",
"W  c #F9C27F",
"Q  c #FAC57E",
"!  c #FAC57F",
"~  c #FAC67F",
"^  c #F7BF80",
"/  c #FAC885",
"(  c #FBC985",
")  c #FBCA85",
"_  c #FBC886",
"`  c #FBC986",
"'  c #FBCA86",
"]  c #FBCA87",
"[  c #FCCA85",
"{  c #FCCA86",
"}  c #FCCB86",
"|  c #FCCA87",
" . c #FCCB87",
".. c #FCCC87",
"X. c #FCCC88",
"o. c #FCCD88",
"O. c #FCCD89",
"+. c #FDCE8A",
"@. c #FDCF8A",
/* pixels */
"o o o o o o o o o o o o o o o X C @.Q 6 4 5 5 5 ",
"o o o o o o o o o o o o o o o X Z @.Q 9 4 5 5 5 ",
". . . . . . . . . . . . . . .   A @.! 9 1 2 2 3 ",
"< 0 0 0 0 0 0 0 0 0 0 0 0 0 0 g P O.{ J m M M n ",
"X.X.X.X.X.X.X.X.X.X.X.X.X.X.X.O.O.X.X.O.X.X.X.X.",
"[ [ [ [ ..X.X.X.' ` ` ` ` ` ` ` ` ` ` ` ` ` ` ( ",
"x c c x N ) O.L p r r r r r r r r r r r r r r w ",
"3 3 3 2 7 ~ +.F + # $ $ $ $ $ $ $ $ $ $ $ $ $ $ ",
"5 5 5 4 8 Q +.S $ % % % % % % % % % % % % % % % ",
"3 3 3 2 8 ~ +.G + @ @ @ @ @ @ @ @ @ @ @ @ @ @ $ ",
"v b b b B { O.U f p a a a a a a a a a a a a s y ",
"} } }  .X.X.X.o. .| | | | | | | | | | | | | | | ",
"' ] ] ] ' ' ' ' ' ] ] ] ] ] '  .o.X.X.X.] ] ] ] ",
"t i i i i i i i i i i i i i i d I O.` V > , , > ",
"$ @ @ @ @ @ @ @ @ @ @ @ @ @ @ + F +.^ =   . . . ",
"% % % % % % % % % % % % % % % $ S +.Y = X o o o ",
"$ $ $ $ $ $ $ $ $ $ $ $ $ $ $ + D +.T =   . . . ",
"q e e e e e e e e e e e e e e u K O./ h ; : : - ",
"( ( ( ( ( ( ( ( ( ( ( ( ( ( ( ' X.X.X. ._ _ _ / ",
"X.X.X.X.O.X.X.O.O.X.X.X.X.X.X.X.X.X.X.X.X.X.X.o.",
"j z l k H ' O.P g 0 0 0 0 0 0 0 0 0 0 0 0 0 0 < ",
"@ @ @ O * W @.A   . . . . . . . . . . . . . . . ",
"% % % $ * E @.Z X o o o o o o o o o o o o o o o ",
"% % % $ & R @.C X o o o o o o o o o o o o o o o "
};
