/* XPM */
static char *_8406_a0f7d8654b4df76d3a919289e9ff4580f34c3b02dcd75f86493af03e48d8a158[] = {
/* columns rows colors chars-per-pixel */
"24 24 202 2 ",
"   c #372C30",
".  c #272226",
"X  c #542D25",
"o  c #472D30",
"O  c #46353D",
"+  c #4A3436",
"@  c #482B27",
"#  c #62433E",
"$  c #83513A",
"%  c #AA663F",
"&  c #DE753E",
"*  c #DF7136",
"=  c #ED7233",
"-  c #E2753D",
";  c #EC7439",
":  c #E3793D",
">  c #EA793A",
",  c #F07235",
"<  c #8B6050",
"1  c #BE794F",
"2  c #B36B43",
"3  c #CD7549",
"4  c #C6794D",
"5  c #CA7B4B",
"6  c #C47847",
"7  c #DC7A42",
"8  c #D67C4C",
"9  c #D87542",
"0  c #CA7D55",
"q  c #E17842",
"w  c #E97F41",
"e  c #BD815F",
"r  c #B68567",
"t  c #BB8A74",
"y  c #BA9779",
"u  c #DF8549",
"i  c #C98358",
"p  c #DB8D54",
"a  c #D68D5A",
"s  c #EE894C",
"d  c #E4884A",
"f  c #EA8551",
"g  c #EB925D",
"h  c #E99558",
"j  c #FB9555",
"k  c #F49C5E",
"l  c #FD9D5E",
"z  c #F39254",
"x  c #F58344",
"c  c #F7A25F",
"v  c #FAA15F",
"b  c #C88F62",
"n  c #C79B7E",
"m  c #D19772",
"M  c #D5946A",
"N  c #E68F62",
"B  c #E99968",
"V  c #F89F65",
"C  c #DEA677",
"Z  c #DBA679",
"A  c #DBA97B",
"S  c #D3A67F",
"D  c #EEA367",
"F  c #E6A26D",
"G  c #ECA46C",
"H  c #F5A263",
"J  c #FBA362",
"K  c #F2A46A",
"L  c #FFAA6C",
"P  c #F9A368",
"I  c #E3A574",
"U  c #EAA571",
"Y  c #E2A67C",
"T  c #E3AA7A",
"R  c #EDAB7C",
"E  c #E6A877",
"W  c #F4A974",
"Q  c #F5AA7A",
"!  c #FAA973",
"~  c #FFB87F",
"^  c #7CB7CE",
"/  c #8E8A8B",
"(  c #A99687",
")  c #BEA28C",
"_  c #96A7A4",
"`  c #92B1B6",
"'  c #B7B1A3",
"]  c #ABBCBA",
"[  c #BCB1B0",
"{  c #B3B9B7",
"}  c #C29D8D",
"|  c #C8A78C",
" . c #D2A684",
".. c #DBAC84",
"X. c #D8AB88",
"o. c #C8AA93",
"O. c #CEB295",
"+. c #C7B499",
"@. c #D6B295",
"#. c #D3B299",
"$. c #DCBA97",
"%. c #E3AC86",
"&. c #FCAE80",
"*. c #EBB186",
"=. c #E6B185",
"-. c #F4B38C",
";. c #FBB88B",
":. c #FDBB92",
">. c #F5B995",
",. c #CDAFA5",
"<. c #C8B8A5",
"1. c #D3BCA8",
"2. c #C0BEB2",
"3. c #E2BAA1",
"4. c #FFC389",
"5. c #FFC89C",
"6. c #D6C8AD",
"7. c #CDC6BD",
"8. c #CCC5B3",
"9. c #DCC2B1",
"0. c #E4C7A8",
"q. c #F6C3A5",
"w. c #FFCDA4",
"e. c #FACCA8",
"r. c #FFD1AB",
"t. c #E1CDB2",
"y. c #FCD3B3",
"u. c #FFD8B7",
"i. c #82B7C5",
"p. c #8BB3C0",
"a. c #84B4C8",
"s. c #8CC3D5",
"d. c #86C4DD",
"f. c #88C6DF",
"g. c #9ACDDD",
"h. c #97CCDC",
"j. c #98D0DD",
"k. c #A7C3C7",
"l. c #A7C3C9",
"z. c #B4C6C5",
"x. c #BFC9C5",
"c. c #B2C7C8",
"v. c #A4CCD6",
"b. c #86C5E1",
"n. c #8FCFEB",
"m. c #8ECFE5",
"M. c #93CFE3",
"N. c #99CEE1",
"B. c #92CEE8",
"V. c #94D0E1",
"C. c #90D0E9",
"Z. c #B3D9E2",
"A. c #ACDFF0",
"S. c #ACE0EE",
"D. c #AEEDFF",
"F. c #B4ECFE",
"G. c #BAEEFD",
"H. c #BEE8F6",
"J. c #BCF2FE",
"K. c #B7F0FF",
"L. c #C8C8C7",
"P. c #D8D6CA",
"I. c #CFDCD5",
"U. c #E0D5CF",
"Y. c #E6D9D6",
"T. c #DEE5DD",
"R. c #D4E5DC",
"E. c #FFE2C3",
"W. c #FFE9CD",
"Q. c #E7E7DD",
"!. c #FFEBD3",
"~. c #FEECDA",
"^. c #FFF5DA",
"/. c #FFF5D9",
"(. c #CEEDEF",
"). c #CCE7E7",
"_. c #DDECE6",
"`. c #D4ECED",
"'. c #D6E7E5",
"]. c #DFF0E8",
"[. c #C3EBF5",
"{. c #CCEEF2",
"}. c #C3EEFA",
"|. c #D1EEF1",
" X c #CDF1F4",
".X c #C4F3FD",
"XX c #CDF5FC",
"oX c #C7F8FF",
"OX c #CEF9FF",
"+X c #DAF4F2",
"@X c #D1F4FB",
"#X c #E3E6E2",
"$X c #E6EBE3",
"%X c #ECEDE2",
"&X c #FCEBE3",
"*X c #E5F0E9",
"=X c #FEF4E2",
"-X c #FFF9E6",
";X c #FFFAEC",
":X c #FEF1E8",
">X c #E0F5F6",
",X c #FFFBF4",
/* pixels */
".X.X.XZ.{.|.}.J.A.J.F.j.J..XJ.S..X.X X(.Z.oXG.V.",
".X.X}.l.x._.|..Xi.J.J.g..X.XJ.i.J. X_.x.k.[.J.m.",
"J.}.l.#X| 1.].oXg.s.G.g..X.Xs.g.oX+X1.) T.l.F.n.",
"A.p.c.:X%.r P.'.>Xz._ ] L._ c.+X).P.r ..=Xc.a.d.",
".X{.$X~.-.1 y O.@. .S ......$.t.+.y 1 -.~.*XH.N.",
".X{.$X!.5.5 i 0 i B P H K D G I A b 6 :.!.$X[.N.",
"}.(.Q.!.w.8 q q k J H H c H K K G G a w.W.$X[.N.",
".X`.%XW.;.7 q s H K H c H c K D H K G 5.W.%X[.M.",
"A.` L.>.9 & 8 Q *.I G H H D I =.=.I D U y.7.p.f.",
"{._.| 0 7 & >./.=XE.R D D R E.^.^.e.F U  .+.).j.",
"#X1.0 q & N =XY.[ ;Xy.C C r.;X[ U.;X*.F G ..P.c.",
",.0 - , * &.=X/ . &XW.C C E.=X  / ,Xq.U K G | +.",
"B 9 ; , > ! /.~.P.;Xr.F F ;.E.,.L.Y.} M D K T ..",
"f q , , > V *.0.W.u.T D k a M r + O @ $ W K U T ",
"N 9 ; , > l H F F G D H H H W Y # O o < Q K I T ",
":.4 - , = j J J J H J c c k V Q t X X t R G ..O.",
"Q.@.3 ; ; x l v c v v v c c v H Q 2 % R G C 8.x.",
"`.%XX.3 q ; j J c k J J J J c h d h W U C 6.R.g.",
"{.|.%X#.5 : w l H h d z j z p h V H G A 6.*X[.j.",
"}.}.@X#Xn 5 & z H 4.L d s d ~ 4.B D A +.R.OXG.V.",
"S.i.g.@XT.#.4 7 V L L J J J L W F C 6.R.OXg.^ b.",
"J.F.s.g.OX$X1.i a U F G G G I T ..t.].OXN.d.D.n.",
"K.J.D.^ F.[.`.P.( y  .A ..X.+.' I.(.[.F.^ D.D.C.",
"V.V.B.d.M.M.g.v.{ <.+.@.$.+.{ ] v.g.M.m.b.n.C.m."
};
